<?xml version="1.0" encoding="utf-8"?>
<!-- Generator: Adobe Illustrator 23.0.3, SVG Export Plug-In . SVG Version: 6.00 Build 0)  -->
<svg version="1.1" id="Layer_1" xmlns="http://www.w3.org/2000/svg" xmlns:xlink="http://www.w3.org/1999/xlink" x="0px" y="0px"
	 viewBox="0 0 1200 1200" enable-background="new 0 0 1200 1200" xml:space="preserve">
<g>
	<path fill="#FFFFFF" d="M82.102,804.51c7.948,14.18,15.456,27.572,20.858,41.776c6.246,16.41,19.628,16.519,23.566,16.161
		c4.135-0.371,17.838-2.966,20.525-20.781l0.061-0.404c0.469-2.576,0.66-5.199,0.565-7.805c-0.73-20.069,1.429-40.047,3.716-61.198
		l0.332-3.071c1.741-16.16,4.854-28.803,14.387-37.982c13.683-13.175,28.726-26.864,45.999-37.732
		c9.625-6.056,18.611-7.179,29.137-3.648c2.852,0.955,5.593,1.653,8.013,2.271c2.197,0.56,4.271,1.088,5.891,1.677
		c24.966,9.083,49.164,4.944,68.131-11.646c1.719-1.503,2.782-2.13,3.26-2.367c0.568,0.165,1.921,0.667,4.384,2.171
		c22.78,13.909,38.075,7.859,50.838-2.291c9.984,1.295,17.754-2.633,23.416-7.403c-0.067,2.642-0.141,5.284-0.235,7.928
		c-0.26,7.316-0.495,14.856-0.237,22.572c-0.441,7.916-0.872,15.857-1.273,23.747c-0.601,11.846,1.657,20.026,7.85,26.202
		c-6.029,6.28-11.891,12.406-17.798,18.651c-25.15-2.109-46.33,8.31-59.671,29.359c-0.384,0.604-0.595,0.938-2.868,1.974
		c-31.649,14.421-57.37,35.236-76.718,61.959c-5.946,7.023-10.747,14.815-14.395,23.324c-8.421,16.731-12.151,32.931-11.344,49.275
		c1.263,25.581,16.541,45.417,40.867,53.059c14.115,4.434,29.512,4.721,45.767,0.856c41.127-9.789,76.59-33.847,105.408-71.506
		c2.648-3.461,3.37-3.657,4.284-3.907c20.459-5.581,35.359-20.176,41.955-41.1c0.349-1.108,0.432-1.372,1.906-2.363
		c13.477-9.075,24.827-18.471,34.695-28.721c2.752-2.858,5.447-5.746,8.16-8.699c2.285,1.155,4.766,2.1,7.431,2.823
		c24.476,6.63,46.71,12.121,70.991,12.134c0.006,0,0.01,0,0.017,0c8.59,0,17.415-3.516,24.898-9.053
		c3.006,13.14,12.327,20.126,29.909,23.5c20.649,3.965,40.985,4.424,61.738,4.571c0.14,0,0.276,0.002,0.417,0.002
		c26.273-0.002,49.426-17.018,57.691-42.455c0.657-2.024,1.368-4.033,2.077-6.043c0.618-1.752,1.245-3.527,1.856-5.348
		c5.564,0.493,10.993,0.538,16.415,0.141c6.348-0.467,13.787-1.131,21.756-2.319c-7.668,4.773-14.259,11.624-19.46,20.315
		l-0.084,0.143c-32.586,19.902-40.048,53.07-42.806,76.496c-3.784,32.125,1.051,63.524,6.28,90.003
		c2.657,13.451,8.559,25.663,17.542,36.295c10.674,12.636,24.737,20.18,39.597,21.242c1.209,0.087,2.417,0.13,3.623,0.13
		c13.108,0,25.972-5.071,36.572-14.491c11.279-10.022,19.309-22.258,25.677-32.905c18.561-31.038,25.613-65.002,30.063-94.131
		c0.361-2.36,0.67-2.734,1.926-3.939c16.286-15.629,21.831-35.709,15.613-56.538c-0.042-0.141-0.07-0.25-0.087-0.332
		c0.061-0.176,0.19-0.5,0.442-0.995c7.501-14.708,13.185-31.177,17.376-50.351c6.223-28.477,2.668-53.737-10.56-75.191
		c15.158-23.081,23.011-48.427,30.876-76.527c9.071-32.41,9.25-63.634,0.551-92.945c18.281-9.144,34.082-18.66,47.99-28.899
		c12.402,3.068,30.556,2.1,47.566-19.305c8.688-0.224,17.014-0.91,23.394-1.496c21.477-1.965,37.353-12.844,45.912-31.461
		c0.367-0.797,1.001-1.906,1.673-3.079c1.45-2.534,3.255-5.687,4.628-9.535c1.192-3.344,3.641-6.662,6.741-10.862
		c17.49-23.698,16.143-48.173-3.607-65.471c-1.77-1.55-3.531-3.112-5.291-4.673c-8.473-7.516-17.234-15.287-27.319-22.093
		c-9.082-6.126-18.456-10.829-27.865-13.978c-15.427-5.17-30.634-2.217-42.818,8.306l-2.503,2.159
		c-9.995,8.612-20.328,17.518-29.387,28.529c-0.29,0.354-0.541,0.652-0.757,0.906c-3.93-0.315-8.021,0.013-12.106,0.929
		c0.919-18.527-1.336-36.885-6.793-54.568c-10.637-34.462-32.755-64.095-64.056-85.927c0.39-3.306,0.554-6.524,0.589-9.617
		c1.17-9.571,2.074-18.429,2.735-26.819c1.68-21.335-2.902-29.023-22.454-37.468c-16.855-7.283-34.787-12.519-53.295-15.568
		c-13.326-2.197-24.591-0.779-35.449,4.462c-0.247,0.12-0.495,0.239-0.743,0.358c-0.634-1.911-1.448-3.55-2.283-4.916
		c-2.276-3.72-7.79-10.193-19.135-11.739c-1.291-0.176-2.563-0.339-3.848-0.513c-2.324-1.106-4.863-1.736-7.468-1.83l-9.772-0.355
		c-1.787-0.21-3.562-0.443-5.362-0.638c-32.999-3.574-61.293-0.037-86.497,10.816c-6.64,2.86-12.617,5.401-18.552,7.546
		c-14.063,5.088-24.365,14.186-30.62,27.044c-1.544,3.175-3.349,6.408-5.259,9.828c-2.53,4.533-5.131,9.212-7.459,14.316
		c-2.195,0.51-4.272,1.116-6.211,1.747c-10.863,2.3-21.451,4.831-31.526,7.579c-35.521,9.681-40.34,13.524-57.283,45.678
		l-0.565,1.073c-15.29,29.007-28.059,56.431-39.027,83.825c-13.186-0.369-24.838,4.132-34.364,7.8l-5.66,2.165
		c-7.743,2.955-15.488,5.911-23.241,8.838c-28.196,10.641-55.786,15.763-84.427,15.572c-23.897-0.132-47.575,2.48-70.462,5.014
		l-6.168,0.68c-56.699,6.224-101.745,46.985-114.759,103.842l-0.344,1.503c-3.627,15.859-7.055,30.838-12.499,45.098
		c-1.217,3.19-2.482,5.007-4.831,6.938c-33.448,27.489-55.047,63.995-64.381,108.596c-1.184,3.285-2.09,7.084-2.091,11.236
		c-0.026,0.165-0.061,0.325-0.087,0.49c-5.812,37.127-1.384,71.552,13.164,102.314C70.743,784.249,76.517,794.549,82.102,804.51z"/>
	<g>
		<path fill="#FFB048" d="M786.98,181.66c-4.33,7.343-11.073,13.226-13.232,21.88c-3.946,5.482-4.757,12.155-6.762,18.35
			c-0.937,2.894-0.31,5.895,3.848,6.125c1.789,1.84,3.917,2.675,6.523,2.984c7.674,0.912,15.41,1.668,22.946,3.298
			c17.045,3.685,17.477,4.025,22.268-12.005c3.475-11.628,5.482-23.694,8.143-35.565c8.733-7.091,18.237-7.32,27.828-2.394
			c9.308,4.78,19.741,5.863,29.306,9.776c11.148,4.562,14.161,6.89,12.212,18.165c-2.733,15.818,2.686,32.183-3.983,47.577
			c-1.536,3.546,1.228,5.216,3.83,6.679c6.86,3.859,13.105,8.518,19.237,13.48c19.298,15.615,31.062,35.885,39.186,59.018
			c9.679,27.562,8.099,55.152,2.48,82.998c-1.323,6.559-3.991,12.531-8.111,17.898c-3.2,4.168-6.997,8.266-5.255,14.314
			c0,0.001,0.233-0.098,0.233-0.098c-2.037-0.174-2.67,1.521-3.656,2.747c-11.442,14.797-22.97,29.32-40.257,38.176
			c-7.359,3.77-6.673,9.769,0.685,15.647c9.569,7.644,18.273,16.022,24.227,26.93c1.39,2.546,3.559,4.513,6.117,5.972
			c-0.625,2.518,0.046,4.833,0.961,7.171c15.97,40.806,13.253,81.027-3.999,120.715c-1.175,2.704-2.032,5.3-2.007,8.213
			c-5.778-0.432-8.809,3.231-11.444,7.586c-1.875,3.099-3.172,6.672-6.575,8.602c-7.05,3.998-10.27,11.376-15.184,17.251
			c-2.858,3.417-3.18,7.341-1.342,11.415c-3.399-0.07-6.268,1.017-9.085,3.07c-8.307,6.055-17.513,10.586-26.73,15.077
			c-5.163,2.516-10.099,5.413-14.058,9.69c-5.454-0.504-10.505,0.297-14.466,4.554c-3.254,0.14-6.442,0.014-9.623,1.432
			c-10.455,4.662-21.115,5.034-32.302,2.148c-5.84-1.507-12.225-0.945-18.369-1.203c-2.08-0.087-4.226,0.356-5.585,2.06
			c-3.961,4.966-4.549,11.325-6.789,17.008c-1.818,4.612,0.915,7.815,3.222,11.186c-5.162,5.729-5.448,13.475-8.261,20.178
			c-2.612,6.224-5.615,11.813-12.492,14.135c-4.571-2.221-9.435-2.111-14.374-2.141c-20.077-0.123-40.168-0.048-60.17-2.21
			c1.617-6.284,2.947-12.656,4.899-18.83c4.469-14.134,2.37-30.113,12.364-42.763c2.07-2.62,0.019-5.383-3.175-6.575
			c-3.337-10.601-4.997-12.121-14.339-10.597c-6.315,1.03-11.566,0.312-17.652-2.476c-6.45-2.954-14.339-3.272-21.658-3.677
			c-7.169-0.397-10.24,4.895-6.383,11.451c2.458,4.178,2.538,7.517,0.833,11.545c-1.509,3.564-0.843,7.32-0.719,11.018
			c0.1,1.982,0.201,3.965,0.301,5.947c-0.163,8.51-3.425,16.576-3.43,25.157c-0.003,4.237-2.972,7.374-6.171,10.022
			c-6.417-4.39-14.107-2.271-21.023-4.107c-0.612-1.054-1.17-2.989-1.844-3.03c-10.279-0.628-19.673-5.766-30.038-5.808
			c-3.62-2.2-7.395-3.856-11.785-3.334c-2.711-5.86-0.748-12.017-1.257-17.893c-1.015-11.717,1.653-22.411,4.69-33.344
			c1.159-4.174,2.649-8.888-1.504-12.658c-0.723-10.341-1.377-11.96-9.578-11.835c-11.38,0.173-21.607-2.387-31.19-8.399
			c-1.975-1.239-4.657-1.353-7.013-1.985c0.199-7.39,0.452-14.779,0.576-22.17c0.069-4.114,0.172-8.121,1.629-12.119
			c7.822-21.475,9.678-43.958,10.733-66.532c0.308-6.598,0.955-12.645,4.605-18.715c4.871-8.101,6.914-17.614,7.621-27.057
			c1.423-19,7.852-36.76,12.756-54.907c3.273-2.952,3.946-6.968,4.9-11.024c4.61-19.597,9.223-39.198,14.246-58.691
			c4.408-17.106,9.494-34.038,12.815-51.414c0.257-1.046,0.514-2.092,0.771-3.138c0.599-0.668,1.198-1.337,1.797-2.005l-0.186,0.207
			c4.805-9.457,8.476-19.296,10.057-29.839c6.803-16.237,14.283-32.103,23.401-47.233c5.477-9.089,9.521-18.897,11.842-29.493
			c1.275-5.82,3.634-12.524,7.789-16.341c6.955-6.389,9.567-13.423,9.091-22.284c2.811,0.45,5.619,1.636,8.469,0.349
			c13.921-6.286,28.667-5.258,43.329-4.9c5.586,0.136,9.435-1.513,10.46-7.78c2.398-14.656,9.795-26.837,19.596-37.671
			c3.349-3.702,6.749-7.261,7.002-12.628c1.269-1.231,2.538-2.461,3.807-3.692c3.644-1.126,7.288-2.252,10.932-3.374
			c5.343,1.862,10.715,1.697,16.105,0.234c7.277,0.265,14.555,0.529,21.831,0.794C781.516,170.133,787.335,173.822,786.98,181.66z
			 M845,427.172c6.625-6.002,14.42-11.233,14.293-21.686c3.93-8.316,6.358-17.271,6.269-26.253
			c-0.107-10.774,2.447-22.718-6.542-31.579c-17.017-16.775-34.635-32.746-59.776-36.218c-4.48-0.619-9.039-1.051-13.38-2.232
			c-19.408-5.283-38.935-9.766-58.923-12.45c-9.352-1.256-18.195,0.334-26.458,3.325c-7.063,2.557-5.323,11.379-7.705,17.329
			c-0.457,1.142-0.432,2.54-1.07,3.537c-5.217,8.147-5.283,17.132-4.487,26.282c-7.313,7.199-6.068,17.335-9.12,25.979
			c-4.622,13.089-3.616,23.717,9.002,31.469c-13.178,5.757-13.666,7.412-5.513,18.708c0.241,0.333,0.477,0.671,0.707,1.011
			c4.713,6.948,4.542,7.628-3.436,11.537c-3.302,1.618-8.199,2.548-8.637,6.25c-1.053,8.901-1.921,18.21,4.416,25.95
			c3.863,4.719,7.939,5.142,12.954,1.7c2.756-1.892,4.749-4.482,6.541-7.289c8.87-13.894,12.659-29.182,12.671-45.53
			c5.389-0.906,9.443,2.445,13.365,4.962c20.572,13.202,43.227,16.395,66.991,14.901c5.916,2.381,11.648,3.66,17.506-0.594
			c3.097-2.249,6.802-3.351,9.83,0.628c-4.528,10.177-4.408,10.813,3.075,16.314c7.74,5.69,7.725,6.253-0.304,11.533
			c-13.78,9.06-13.91,11.239-1.353,22.392c0.613,0.544,1.139,1.192,1.777,1.701c3.994,3.185,7.516,2.975,10.216-1.64
			c3.52-6.018,7.58-11.824,10.281-18.198C843.827,455.704,846.989,441.808,845,427.172z M831.592,638.476
			c3.714-0.555,8.999-1.187,8.787-5.196c-0.435-8.202,4.921-14.621,5.317-22.268c1.019-19.674-6.19-36.817-19.812-50.164
			c-13.159-12.893-27.914-24.225-44.275-33.273c-10.815-5.981-23.136-5.433-34.383-9.433c-18.511-6.583-38.072-6.776-57.244-6.1
			c-10.72,0.378-21.372,4.137-32.513,4.404c-13.901,0.332-17.3,4.089-21.403,17.733c-1.365,4.539-1.197,8.901-0.885,13.407
			c-0.792,0.896-2.015,1.669-2.312,2.706c-8.477,29.638-17.16,59.229-23.929,89.316c-1.889,8.396-2.657,17.048-3.828,25.598
			c-0.455,3.322-0.584,6.645,3.299,8.374c5.617,2.501,10.975,5.976,16.841,7.461c28.962,7.33,58.426,8.506,88.102,5.96
			c2.532,2.552,5.97,4.033,9.019,2.622c10.742-4.972,22.394-4.82,33.678-6.281c7.634-0.988,14.241-3.712,20.823-7.152
			c5.091-2.661,10.63-4.589,15.616-7.176C807.313,661.324,822.744,653.977,831.592,638.476z"/>
		<path fill="#D6547C" d="M147.72,713.764c-10.503,23.635-17.397,48.035-17.582,74.214c-0.053,7.542,2.434,14.693,1.828,22.143
			c-0.383,4.7,1.259,10.534-5.485,12.278c-5.041,1.303-9.4-2.554-11.223-10.626c-2-8.854-3.16-17.931-11.356-23.751
			c-11.924-25.83-25.655-51.064-23.738-81.038c0.705-11.012,2.518-22.105-1.922-33.067c-1.898-4.687,0.907-9.751,3.17-14.182
			c3.949-7.734,6.631-15.621,8.165-24.365c1.843-10.511,6.724-20.363,15.477-27.514c1.261-1.03,3.045-1.929,3.562-3.28
			c5.564-14.544,18.042-23.331,28.096-34.128c10.363-11.129,15.778-24.766,20.341-38.981c5.862-18.262,7.864-37.431,15.513-55.417
			c7.051-16.581,19.256-27.254,32.419-37.989c18.465-15.059,40.141-19.129,63.066-21.843c23.357-2.765,46.687-7.684,70.128-6.585
			c38.727,1.816,73.753-11.557,109.402-22.974c9.037-2.894,17.888-6.383,26.782-9.712c6.859-2.567,12.153-1.366,15.236,5.802
			c-2.557,9.313-10.311,17.288-7.253,28.056c-0.994,1.376-1.988,2.752-2.982,4.128c-15.101,2.492-28.757,9.525-43.289,13.769
			c-16.068,4.692-31.455,10.762-45.522,19.945c-1.712,1.118-3.417,2.363-5.303,3.082c-20.281,7.726-37.154,20.602-53.082,34.926
			c-1.563,0.242-2.913,0.8-3.568,2.394l-0.01,0.041c-1.436,0.179-2.401,0.85-2.514,2.41l-0.023,0.015
			c-4.114-0.6-6.293,1.854-7.992,5.065c-1.073,1.602-2.146,3.204-3.219,4.806c-1.742,0.077-3.133,0.66-3.639,2.521l-0.037,0.038
			c-2.188-0.262-3.979,0.242-4.859,2.511l0.028-0.107c-2.908,0.487-5.249,1.55-5.149,5.083l0.163-0.156
			c-3.504-0.101-5.398,1.42-5.147,5.104l0.159-0.16c-10.229,2.085-15.647,9.918-21.125,17.68
			c-11.028,8.503-23.047,15.892-31.121,27.712c-1.864,0.889-3.56,1.869-2.388,4.404l0.087-0.122
			c-2.024-0.289-2.797,0.695-2.657,2.61l0.166-0.168c-1.846-0.096-2.656,0.862-2.675,2.627l0.171-0.182
			c-1.616,0.168-2.378,1.204-2.714,2.672l0.243-0.257c-0.742,0.645-1.485,1.29-2.227,1.935c-4.844,5.05-11.617,8.547-13.111,16.292
			c-2.725,1.492-4.775,3.438-4.628,6.866l0.137-0.193c-1.596,0.349-2.21,1.475-2.353,2.974c-0.459,0.647-0.531,1.334-0.215,2.062
			l-0.02,0.007c-1.849,0.546-2.383,1.979-2.491,3.698c-8.423,7.606-14.008,17.582-23.124,25.002
			c-7.174,5.839-11.356,16.024-14.055,25.736c-9.262,9.921-15.41,21.391-17.39,34.936
			C152.326,699.542,145.716,705.204,147.72,713.764z"/>
		<path fill="#340026" d="M479.364,414.934c0.994-1.376,1.988-2.752,2.983-4.133c6.41-8.294,9.937-17.644,10.355-28.138
			c2.525-1.098,3.47-3.336,4.215-5.753c10.232-33.182,26.398-63.748,41.407-94.855c4.445-9.213,11.9-16.472,15.178-26.417
			c1.668-5.06,7.595-6.036,12.431-6.947c11.296-2.129,22.072-6.444,33.123-8.804c11.349-2.423,22.222-10.384,34.777-5.445
			c-0.004-0.001-0.183,0.183-0.183,0.183c0.476,8.861-2.136,15.895-9.091,22.284c-4.156,3.818-6.514,10.521-7.789,16.341
			c-2.321,10.596-6.365,20.404-11.842,29.493c-9.118,15.13-16.597,30.996-23.4,47.233c-7.78,8.454-8.338,19.343-10.058,29.839
			c0,0,0.186-0.207,0.184-0.207c-0.599,0.668-1.197,1.337-1.795,2.005c-0.257,1.046-0.514,2.092-0.77,3.137
			c-9.28,16.673-13.484,34.987-16.93,53.481c-1.807,9.701-3.469,19.534-7.858,28.307c-6.289,12.571-6.483,25.927-7.175,39.342
			c-4.904,18.147-11.333,35.907-12.756,54.907c-0.707,9.443-2.75,18.956-7.621,27.057c-3.65,6.07-4.297,12.117-4.605,18.715
			c-1.055,22.574-2.911,45.057-10.733,66.532c-1.456,3.998-1.56,8.005-1.629,12.119c-0.124,7.391-0.377,14.78-0.573,22.171
			c-11.529,3.602-22.702,8.396-34.842,9.974c-2.743,0.357-6.148,1.212-7.837,3.1c-6.633,7.413-15.144,7.03-23.759,6.815
			c-6.327-6.206-3.908-14.433-4.338-21.682c-0.702-11.827,0.213-23.749,0.421-35.632c0.123-7,0.537-13.894,6.056-19.184
			c-2.479-8.826,3.016-16.793,2.735-25.382c3.624-11.451,5.589-23.023,2.545-34.96c4.309-4.316,1.322-9.849,2.454-14.696
			l-0.054,0.106c1.57-1.477,1.888-3.443,2.414-5.435c2.953-11.175,1.69-22.637,2.509-33.953c0.756-0.952,1.511-1.903,2.268-2.854
			c1.298-0.318,2.276-0.924,2.228-2.46c0.358-3.145,0.717-6.29,1.075-9.435c7.355-2.615,14.676-5.332,22.075-7.818
			c9.397-3.157,17.308-7.892,22.048-17.203c7.085-13.918,7.98-29.114,9.973-44.124c0.593-4.465-0.809-7.815-4.062-10.998
			c-6.398-6.263-13.189-11.143-22.755-9.924c-1.004-1.878-2.008-3.756-3.012-5.634C477.57,422.231,480.966,419.037,479.364,414.934z
			"/>
		<path fill="#D6547C" d="M479.364,414.934c1.602,4.103-1.794,7.297-2.012,11.071c-6.202,2.861-12.479,4.906-19.345,6.284
			c-9.594,1.927-19.196,5.713-25.49,14.379l0.165-0.094c-2.572-0.759-3.912,0.838-5.125,2.679l0.234-0.168
			c-1.529,0.325-2.572,1.253-3.258,2.625c-8.678,4.719-15.179,11.883-21.543,19.199c-1.23,0.803-2.503,1.569-2.718,3.227
			l0.216-0.268c-5.89-0.022-9.929,3.066-13.02,7.749c-1.092,0.018-1.71,0.555-1.817,1.655c-5.632,3.294-11.387,5.836-18.186,3.884
			c-2.044-0.587-3.928,0.206-5.339,1.884c-6.578,4.479-13.342,8.727-18.562,14.898c-4.125,1.268-2.791,4.303-2.289,7.069
			c0.085,2.22,0.17,4.44,0.255,6.66l0.003-0.383c-0.924,11.704,1.563,24.49-10.382,32.694c-1.29,0.878-2.64,1.707-2.833,3.479
			l0.093-0.147c-9.375,3.799-14.363,11.353-17.526,20.469c-11.926,11.571-10.645,24.799-4.049,38.105
			c6.133,12.37,13.146,24.304,19.772,36.43c-0.03,3.428-0.742,6.913-3.428,8.986c-8.67,6.694-17.392,13.721-28.019,16.819
			c-10.113,2.949-20.557,2.334-29.855-3.309c-6.03-3.66-12.256-4.152-18.98-3.789c-9.885,0.533-20.157-0.903-29.59,1.337
			c-9.466,2.248-16.16,10.94-24.96,15.584c-8.051,4.249-14.352,10.977-20.127,18.1c-3.107,3.833-6.924,7.085-10.109,10.862
			c-4.431,5.254-8.945,5.008-13.828,0.862c-2.001-8.561,4.609-14.223,7.154-21.252c8.023-10.537,12.752-22.714,17.39-34.936
			c2.7-9.712,6.882-19.897,14.055-25.736c9.117-7.42,14.701-17.396,23.125-25.003c1.342-0.889,2.321-2.02,2.491-3.697
			c0,0,0.02-0.007,0.02-0.007c1.229-0.269,2.004-0.922,1.94-2.287c0.21-0.916,0.419-1.832,0.629-2.748c0,0-0.137,0.193-0.137,0.193
			c3.612-0.894,5.093-3.224,4.628-6.866c1.494-7.746,8.267-11.243,13.112-16.292c0.743-0.645,1.484-1.29,2.226-1.936
			c0,0-0.243,0.257-0.243,0.256c1.363-0.425,2.353-1.229,2.714-2.671c0,0-0.171,0.182-0.171,0.182
			c1.572-0.183,2.5-1.022,2.674-2.627c0,0-0.166,0.168-0.166,0.168c1.639-0.103,2.629-0.867,2.657-2.61c0,0-0.087,0.122-0.087,0.122
			c3.04-0.251,2.484-2.453,2.389-4.404c8.074-11.82,20.093-19.209,31.127-27.711c8.988-3.571,16.72-8.636,21.119-17.68
			c0,0-0.159,0.16-0.159,0.16c2.122-1.291,4.334-2.493,5.147-5.104c0,0-0.163,0.156-0.163,0.156c2.68-0.719,5.09-1.711,5.149-5.083
			c0,0-0.028,0.107-0.027,0.107c2.536,0.937,4.006-0.191,4.859-2.511c0,0,0.037-0.038,0.038-0.038
			c1.774-0.031,2.83-1.098,3.639-2.521c1.073-1.602,2.146-3.204,3.222-4.806c4.28,0.857,6.24-1.937,7.988-5.065
			c0,0,0.023-0.015,0.023-0.015c1.498-0.114,2.669-0.57,2.514-2.41c0,0,0.01-0.041,0.011-0.041c1.893,0.251,2.808-0.956,3.567-2.394
			c15.928-14.325,32.801-27.2,53.082-34.926c1.886-0.719,3.591-1.964,5.303-3.082c14.067-9.184,29.454-15.253,45.522-19.945
			C450.607,424.459,464.263,417.427,479.364,414.934z"/>
		<path fill="#FE95E6" d="M442.916,863.328c8.485,7.733,8.599,10.188,1.258,17.719c-7.386,7.578-17.783,9.939-26.375,15.429
			c-2.362,1.509-5.169,1.981-7.002,4.658c-11.886,17.359-28.441,29.648-45.572,41.232c-8.841,5.978-17.962,11.545-26.765,17.576
			c-2.869,1.966-5.893,2.767-9.145,3.387c-10.936,2.085-21.86,4.234-32.787,6.37c-4.14,0.809-8.155,1.134-11.785-1.76
			c-1.597-1.272-3.438-2.659-5.614-2.085c-12.89,3.399-16.397-7.03-18.806-14.935c-4.621-15.161-8.395-30.924-0.784-46.695
			c2.667-5.527,3.803-11.674,10.214-14.777c3.38-1.636,4.318-5.912,6.58-8.818c13.616-17.492,27.128-34.838,47.325-45.885
			c10.368-5.671,18.863-14.633,30.147-19.2c1.655-0.67,2.886-2.848,3.896-4.573c3.974-6.779,9.935-10.615,17.322-12.9
			c3.885-1.202,7.508-3.301,11.18-5.134c9.21-4.598,10.173-4.353,16.737,4.741c-1.501,6.7-7.04,9.809-12.097,13.174
			c-1.981,1.318-4.346,1.793-5.883,4.052c-7.944,11.681-5.576,23.43-2.377,36.176c2.075,8.264,7.853,9.554,13.262,12.678
			c2.876,8.48,9.289,7.063,15.712,5.614c1.868,0.584,3.737,1.168,5.605,1.752c1.935,2.739,3.839,2.851,5.709-0.065l-0.142,0.082
			c4.22,0.215,8.904,1.435,10.188-4.706C436.25,865.398,439.583,864.363,442.916,863.328z"/>
		<path fill="#FE95E6" d="M896.773,857.493c6.779,3.794,9.57,9.634,6.515,16.87c-3.65,8.648-6.398,17.979-13.897,24.529
			c-2.485,2.17-4.237,4.353-4.42,8.251c-0.778,16.653-5.805,32.474-11.466,47.942c-5.655,15.45-12.273,30.571-19.008,45.595
			c-6.241,13.922-16.869,24.116-29.807,31.921c-6.238,3.763-12.531,3.74-18.471-0.823c-6.536-5.022-13.084-10.033-19.491-15.217
			c-1.884-1.524-4.272-3.387-4.776-5.492c-2.575-10.745-8.761-20.106-10.034-31.537c-2.019-18.124-2.182-36.215-2.263-54.354
			c-0.025-5.72-0.907-11.577,1.868-17.043c0.527-1.038,1.092-2.685,0.641-3.495c-6.281-11.286,1.537-19.709,5.866-28.704
			c2.312-4.804,5.437-9.237,8.4-13.702c2.325-3.503,5.187-6.502,9.816-6.726c7.219-0.349,10.792-5.302,13.356-11.047
			c2.562-5.741,6.795-10.262,10.482-15.117c3.927-5.171,9.248-6.849,15.014-2.125c4.61,7.031-1.366,11.15-4.405,16.103
			c-1.591,2.593-5.394,5.83-1.372,8.251c6.413,3.86,5.902,11.365,10.122,16.172c-0.5,5.579,2.156,8.257,7.652,8.326l-0.112-0.071
			c13.589,7.032,27.435,6.938,36.953-4.917C889.616,867.873,889.25,858.958,896.773,857.493z"/>
		<path fill="#FE95E6" d="M341.534,517.665c-0.085-2.22-0.17-4.44-0.255-6.659c2.351-1.842,2.239-4.482,2.289-7.069
			c5.22-6.171,11.984-10.418,18.566-14.899c6.955-2.257,11.89,0.748,15.925,6.1c-2.845,8.582-6.923,16.94-4.821,26.425
			c-2.514,4.746-1.516,8.999,1.813,12.924c-0.208,0.53-0.106,0.992,0.305,1.385c-0.195,6.287,1.586,11.488,8.246,13.43
			c8.869,2.587,17.716,6.686,27.094,2.227c1.134-0.539,1.471-2.754,2.177-4.193c2.222-1.369,4.444-2.737,6.665-4.106
			c1.995,0.47,3.99,0.929,6.007,0.105l-0.108-0.018c-0.073,1.879,1.234,2.494,2.709,2.955c1.165,10.079,1.198,19.938-5.534,28.483
			c-1.734,0.622-2.45,1.877-2.286,3.678l0.12-0.112c-2.395-0.444-3.713,0.631-4.155,2.944c-6.005,4.647-5.449,11.1-4.835,17.569
			c-0.244,7.907-0.488,15.815-0.732,23.722c-2.302,8.814-6.212,16.94-10.994,24.618c-3.384,5.434-7.56,10.096-14.995,7.662
			c-2.754-0.902-4.741-0.189-6.606,1.694c-15.122,15.261-27.338,8.278-41.841-0.758c-3.434-2.139-5.771-5.829-9.677-7.445
			c-6.625-12.139-13.638-24.073-19.771-36.444c-6.596-13.306-7.877-26.533,4.051-38.109c9.293-3.87,14.58-11.164,17.524-20.465
			c0,0-0.093,0.147-0.093,0.147c2.247-0.099,2.512-1.811,2.833-3.479c11.945-8.204,9.458-20.99,10.381-32.691
			c-0.001,0.002,0.672,0.204,0.672,0.204L341.534,517.665z"/>
		<path fill="#FFFFFF" d="M417.163,871.123c-1.868-0.584-3.737-1.168-5.593-1.741c-4.226-4.681-10.507-3.667-15.724-5.624
			c-5.409-3.123-11.187-4.413-13.262-12.678c-3.2-12.745-5.567-24.495,2.377-36.176c1.536-2.259,3.902-2.734,5.883-4.052
			c5.057-3.365,10.597-6.474,12.097-13.174c18.145-13.686,33.1-30.739,49.177-46.606c1.753-1.73,3.39-3.577,5.067-5.335
			c0.004-0.621-0.139-1.23-0.443-1.792l0.699,0.258c2.127,0.179,3.988-0.13,4.688-2.562l0.107,0.094
			c1.358-0.231,2.171-1.038,2.495-2.362l0.024-0.069c1.331-0.276,2.148-1.079,2.459-2.4l0.13-0.025
			c0.805-0.569,1.609-1.139,2.414-1.708c6.698-4.805,15.034-2.616,22.25-5.213c3.277,3.997,7.612,2.096,11.609,2.083
			c8.489,0.623,15.351,6.492,23.759,7.37c1.827,21.181-2.076,41.118-12.92,59.55c-0.36,0.198-0.865,0.302-1.058,0.606
			c-16.756,26.276-40.785,44.516-66.799,60.584c-1.362,0.841-2.46,2.11-3.682,3.179c-3.334,1.034-6.667,2.07-10.001,3.102
			c-3.876,0.531-7.886,0.773-10.187,4.709l0.142-0.082C420.969,871.079,419.066,871.101,417.163,871.123z"/>
		<path fill="#FE95E6" d="M978.168,434.829c-3.524-2.751-6.057-6.297-3.992-10.673c2.967-6.287,8.773-9.799,15.131-11.841
			c3.022-0.97,6.87-1.265,9.796-0.264c7.133,2.44,11.397-0.638,15.81-5.666c9.259-10.55,20.312-19.318,29.775-29.753
			c8.977-9.899,20.025-9.869,30.573-1.155c4.51,3.726,9.515,6.546,14.69,9.13c5.225,2.609,10.061,5.763,13.895,10.201
			c3.718,4.304,6.608,8.964,13.888,8.197c4.329-0.457,6.975,3.71,7.822,8.241c2.077,11.105-0.002,21.691-6.303,30.69
			c-3.803,5.432-7.379,10.886-10.377,16.743c-3.607,7.047-8.355,13.182-13.556,19.137c-5.338,6.112-11.288,9.115-19.53,8.014
			c-8.304-1.109-16.022,3.598-24.43,3.054c-3.003-0.195-4.59,3.194-6.772,5.021c-6.015,5.036-11.788,10.417-18.159,14.957
			c-8.272,5.894-13.107,3.89-17.388-6.357c2.163-2.429,4.249-4.94,6.521-7.27c1.517-1.556,2.875-3.263,1.948-5.364
			c-2.355-5.338-0.136-10.492,0.229-15.72c0.918-13.141-3.076-24.746-10.956-35.142c-1.343-2.411-2.739-4.751-6.047-4.546
			l0.154,0.045c-2.221-4.514-4.81-7.883-9.979-3.199C986.79,432.947,982.885,435.359,978.168,434.829z"/>
		<path fill="#FFFFFF" d="M839.446,867.743c-4.22-4.807-3.709-12.311-10.122-16.172c-4.022-2.421-0.22-5.658,1.372-8.251
			c3.039-4.953,9.015-9.072,4.405-16.103c2.05-5.783,4.131-11.557,6.109-17.366c0.389-1.143,0.84-2.578,0.486-3.613
			c-3.245-9.481-4.379-20.03-13.151-26.798c-1.812-2.685-1.583-5.195-0.069-8.088c1.881-3.596,4.338-7.111,3.971-11.527
			c5.389-0.105,7.68-5.07,11.64-7.418c3.964-4.28,8.901-7.178,14.063-9.694c9.217-4.492,18.424-9.022,26.731-15.077
			c2.817-2.053,5.686-3.14,9.086-3.069c2.613,1.273,5.225,2.545,7.837,3.817c-0.764,3.727,1.503,6.164,3.577,8.78
			c13.531,17.064,16.074,36.524,12.775,57.419c-3.124,19.785-8.938,38.587-19.003,55.977c-1.257,2.172-2.298,4.376-2.368,6.934
			c-7.533,1.464-7.167,10.379-12.842,13.586c-0.779,0.219-1.601,0.347-2.336,0.672c-11.114,4.913-22.355,8.735-34.619,4.245
			l0.112,0.071C847.396,870.676,842.1,870.423,839.446,867.743z"/>
		<path fill="#FFFFFF" d="M1006.781,439.01c7.88,10.396,11.874,22.002,10.956,35.142c-0.365,5.227-2.584,10.382-0.229,15.72
			c0.927,2.1-0.431,3.808-1.948,5.364c-2.272,2.33-4.358,4.842-6.521,7.27c-17.86,16.947-40.584,25.946-61.621,37.713
			c-4.351,2.433-8.53,5.128-13.859,3.396c-2.564-1.46-4.732-3.427-6.122-5.973c-5.954-10.908-14.658-19.286-24.227-26.93
			c-7.358-5.878-8.044-11.877-0.685-15.647c17.287-8.856,28.815-23.379,40.271-38.175c1.473-0.585,2.968-1.125,3.642-2.749
			c0,0-0.233,0.099-0.233,0.098c10.786-6.251,22.937-10.255,31.959-19.413c4.723,0.533,8.628-1.879,12.745-3.514
			c3.326,1.068,6.653,2.132,9.981,3.196c0,0-0.154-0.045-0.153-0.045C1001.813,437.225,1003.965,438.56,1006.781,439.01z"/>
		<path fill="#340026" d="M635.541,234.626c0,0,0.179-0.184,0.183-0.183c-3.153-3.521-4.132-7.688-0.714-11.101
			c7.47-7.46,11.571-17.008,16.929-25.762c3.19-5.211,7.497-8.596,13.017-10.905c15.582-6.519,32.279-10.326,46.846-19.33
			c3.079-1.903,6.357-1.336,9.486,0.219c1.037,1.477,2.073,2.954,3.11,4.431c-0.254,5.367-3.653,8.926-7.002,12.628
			c-9.802,10.834-17.198,23.016-19.596,37.671c-1.025,6.267-4.874,7.916-10.46,7.78c-14.662-0.358-29.408-1.386-43.329,4.9
			C641.159,236.262,638.351,235.076,635.541,234.626z"/>
		<path fill="#340026" d="M492.008,729.958c-7.215,2.597-15.552,0.408-22.248,5.212c-1.287-0.114-2.149,0.377-2.415,1.709
			c0,0-0.13,0.025-0.131,0.025c-1.645-0.044-2.425,0.796-2.458,2.4c0,0-0.024,0.069-0.026,0.069
			c-1.502,0.08-2.501,0.691-2.493,2.363c0,0-0.107-0.094-0.107-0.093c-2.153-0.227-4.051,0.011-4.689,2.56
			c0,0-0.699-0.258-0.691-0.254c0.008,0.004-0.652-0.194-0.652-0.194l-0.416,0.551c-2.411-0.126-4.83-0.165-7.232-0.393
			c-14.788-1.406-14.834-1.47-15.68-16.643c8.617,0.217,17.127,0.599,23.761-6.813c1.69-1.888,5.094-2.743,7.837-3.1
			c12.139-1.578,23.313-6.372,34.842-9.974c2.354,0.632,5.035,0.745,7.011,1.984c9.583,6.012,19.81,8.572,31.19,8.399
			c8.201-0.125,8.854,1.494,9.578,11.835c-6.203,3.937-12.681,7.326-19.61,9.811c-8.41-0.878-15.272-6.747-23.762-7.37
			C500.434,727.517,496.281,728.401,492.008,729.958z"/>
		<path fill="#340026" d="M832.445,759.826c0.367,4.416-2.09,7.931-3.971,11.527c-1.513,2.893-1.743,5.404,0.069,8.088
			c0.097,4.938-2.728,7.407-7.205,8.336c-19.091,3.962-38.366,4.7-57.755,3.092c-1.16-0.096-2.267-0.837-3.403-1.279
			c-2.312-3.373-5.044-6.576-3.226-11.188c2.24-5.683,2.829-12.041,6.789-17.008c1.359-1.704,3.505-2.147,5.585-2.06
			c6.144,0.258,12.529-0.303,18.369,1.203c11.187,2.886,21.847,2.514,32.302-2.148c3.181-1.418,6.369-1.292,9.623-1.432
			C830.565,757.914,831.505,758.87,832.445,759.826z"/>
		<path fill="#340026" d="M831.365,186.727c-2.661,11.871-4.668,23.937-8.143,35.565c-4.791,16.03-5.223,15.69-22.268,12.005
			c-7.536-1.629-15.272-2.386-22.946-3.298c-2.606-0.31-4.734-1.144-6.522-2.983c-1.064-4.552-0.401-8.573,2.624-12.431
			c2.695-3.437,5.17-7.201,5.495-11.843c6.725-4.894,15.096-6.136,22.268-10.041c5.002-2.724,10.76-4.04,15.018-8.153
			C822.142,180.474,826.964,181.128,831.365,186.727z"/>
		<path fill="#340026" d="M664.878,819.552c20.005,2.16,40.096,2.084,60.173,2.208c4.939,0.03,9.804-0.079,14.374,2.141
			c2.068,11.143,1.49,10.844-7.897,15.585c-12.218,6.172-24.813,7.054-38.051,6.287c-13.464-0.78-26.897-2.59-40.447-1.649
			c-5.104,0.355-8.694-1.826-9.806-7.164c0.335-4.563,2.955-7.219,7.038-8.932C655.482,825.838,660.404,823.063,664.878,819.552z"/>
		<path fill="#D6547C" d="M422.613,574.756c6.732-8.545,6.698-18.404,5.533-28.483c-0.125-1.698,0.208-3.814-2.708-2.955
			c0,0,0.108,0.018,0.108,0.018c1.974-1.773,0.167-3.495-0.071-5.238c1.265-6.518,6.806-9.787,10.947-14.022
			c3.34-3.417,7.326-2.595,11,0.002c1.031,2.353,2.061,4.705,3.092,7.058c-0.244,0.821-0.489,1.643-0.733,2.464
			c-0.756,0.952-1.511,1.903-2.266,2.853c-3.878,12.849-5.628,25.966-4.924,39.389c0,0,0.054-0.106,0.054-0.106
			c-2.672,4.493-4.651,9.191-4.336,14.573c-3.051,6.933-2.839,14.297-1.92,21.465c0.604,4.707-0.241,8.719-2.118,12.786
			c-7.307,2.148-14.759,5.96-21.194-1.853c-0.154-3.951,0.291-7.682,1.545-11.584c1.367-4.258,2.891-9.515-3.164-12.288
			c-0.613-6.469-1.169-12.922,4.831-17.569c1.975-0.145,4.131-0.039,4.159-2.943c0,0-0.12,0.112-0.12,0.112
			C422.51,578.091,422.458,576.359,422.613,574.756z"/>
		<path fill="#340026" d="M588.727,805.665c6.917,1.836,14.606-0.283,21.023,4.107c2.579,11.158-2.947,18.282-14.324,17.988
			c-7.435-0.192-14.692-1.91-22.011-3.223c-11.359-2.037-22.871-3.286-34.355-4.525c-6.463-0.697-10.919-3.38-12.612-9.882
			c3.332-8.759,9.45-14.401,18.613-16.636c4.391-0.522,8.165,1.134,11.785,3.332C565.971,805.181,577.505,804.862,588.727,805.665z"
			/>
		<path fill="#340026" d="M619.051,768.646c-0.123-3.698-0.79-7.454,0.719-11.018c1.705-4.027,1.625-7.367-0.833-11.545
			c-3.857-6.556-0.786-11.847,6.383-11.451c7.319,0.405,15.208,0.723,21.658,3.677c6.086,2.787,11.337,3.506,17.652,2.476
			c9.343-1.524,11.002-0.004,14.337,10.598c-3.41,6.488-10.706,7.23-16.047,10.862c-1.06,0.404-2.076,0.848-2.067,2.239l0.191-0.249
			c-1.829-0.049-3.187,0.38-2.71,2.671l0.211-0.214c-5.213,1.262-8.055,6.132-12.661,8.317c-7.624,0.763-14.766-2.168-22.195-2.897
			C622.143,770.957,620.597,769.802,619.051,768.646z"/>
		<path fill="#340026" d="M662.921,762.246c5.34-3.632,12.636-4.374,16.047-10.862c3.196,1.19,5.247,3.953,3.177,6.573
			c-9.994,12.649-7.895,28.629-12.364,42.763c-1.952,6.175-3.283,12.546-4.899,18.83c-4.478,3.512-9.399,6.287-14.619,8.478
			c-4.082,1.713-6.703,4.369-7.038,8.932c-3.732-1.578-4.47-4.545-3.644-8.122c0.834-3.612,2.105-7.147,2.659-10.795
			c1.331-8.772,5.563-17.189,2.117-26.576c-1.372-3.736,0.737-8.081,1.901-12.038c6.026-2.383,10.065-6.683,12.287-12.737
			c0,0-0.211,0.214-0.211,0.214c1.668-0.115,2.565-1.011,2.71-2.671c0,0-0.191,0.249-0.191,0.249
			C661.542,763.738,662.231,762.992,662.921,762.246z"/>
		<path fill="#340026" d="M545.06,793.494c-9.163,2.235-15.281,7.877-18.613,16.636c-10.816-2.408-10.816-2.408-11.991-11.167
			c10.843-18.434,14.746-38.371,12.919-59.552c6.931-2.486,13.409-5.874,19.612-9.811c4.154,3.769,2.664,8.484,1.505,12.657
			c-3.036,10.932-5.705,21.627-4.69,33.344C544.312,781.476,542.349,787.633,545.06,793.494z"/>
		<path fill="#340026" d="M901.802,728.385c-2.612-1.272-5.224-2.544-7.837-3.817c-1.839-4.076-1.517-8,1.341-11.417
			c4.914-5.875,8.134-13.253,15.184-17.251c3.403-1.93,4.7-5.503,6.575-8.602c2.635-4.355,5.666-8.018,11.444-7.586
			c1.295,3.044-0.353,5.469-1.639,8.008c-5.328,10.517-10.472,21.131-15.992,31.546C908.847,723.099,907.095,727.62,901.802,728.385
			z"/>
		<path fill="#FFFFFF" d="M455.682,744.306l0.416-0.551c0,0,0.661,0.198,0.652,0.194c0.296,0.558,0.439,1.167,0.435,1.788
			C456.323,745.637,455.818,745.172,455.682,744.306z"/>
		<path fill="#340026" d="M753.793,598.042c-5.827-11.312-14.408-19.898-25.467-26.162c-5.372-3.043-10.564-6.415-15.753-9.767
			c-18.529-11.968-38.623-15.066-60.277-11.892c-5.929,0.869-13.122,4.089-18.351-2.634c-0.314-4.508-0.482-8.87,0.883-13.409
			c4.103-13.644,7.501-17.4,21.403-17.733c11.141-0.266,21.792-4.026,32.513-4.404c19.172-0.675,38.732-0.483,57.244,6.1
			c11.247,4,23.567,3.452,34.383,9.433c16.361,9.048,31.116,20.381,44.275,33.273c13.622,13.346,20.831,30.49,19.812,50.164
			c-0.396,7.647-5.752,14.066-5.317,22.268c0.213,4.009-5.072,4.64-8.789,5.193c-1.543-1.321-3.318-2.446-4.587-3.988
			c-8.362-10.156-18.127-18.588-29.849-24.642C782.692,603.014,768.472,599.696,753.793,598.042z"/>
		<path fill="#340026" d="M685.98,347.227c-0.796-9.15-0.73-18.135,4.487-26.282c0.639-0.997,0.613-2.395,1.07-3.537
			c2.382-5.951,0.643-14.772,7.705-17.329c8.263-2.992,17.106-4.581,26.458-3.325c19.989,2.684,39.516,7.167,58.923,12.45
			c4.342,1.182,8.9,1.613,13.38,2.232c25.141,3.472,42.759,19.444,59.776,36.218c8.989,8.861,6.435,20.805,6.542,31.579
			c0.089,8.982-2.339,17.937-6.274,26.248c-1.791-0.915-4.144-1.374-5.274-2.802c-12.972-16.387-31.297-20.668-50.634-22.781
			c-6.214-0.813-11.399-2.855-16.183-7.651c-9.966-9.99-23.063-15.492-36.766-15.779
			C727.605,356.015,707.325,348.245,685.98,347.227z"/>
		<path fill="#340026" d="M753.793,598.042c14.679,1.654,28.899,4.972,42.121,11.801c11.722,6.055,21.487,14.486,29.849,24.642
			c1.269,1.542,3.044,2.667,4.587,3.988c-8.846,15.503-24.278,22.85-39.096,30.539c-4.986,2.587-10.525,4.515-15.616,7.176
			c-6.582,3.44-13.189,6.164-20.823,7.152c-11.283,1.461-22.935,1.31-33.678,6.281c-3.049,1.411-6.488-0.07-9.02-2.62
			c-0.427-3.748,1.536-6.001,4.441-8.093c17.903-12.896,28.09-31.351,36.696-51.004c2.262-5.166,3.6-10.209,1.094-15.381
			C751.984,607.644,753.457,602.88,753.793,598.042z"/>
		<path fill="#340026" d="M785.922,436.874c-1.133-2.51-0.94-4.561,1.362-6.54c3.108-2.671,6.084-5.546,8.799-8.613
			c9.289-10.495,14.997-21.74,7.137-35.772c-0.946-1.689-0.749-4.018-1.081-6.051c19.337,2.113,37.662,6.394,50.634,22.781
			c1.13,1.428,3.484,1.888,5.274,2.802c0.132,10.458-7.663,15.689-14.286,21.691c-8.411-3.299-15.624-0.834-22.378,4.449
			c-2.535,1.983-5.407,3.537-8.125,5.287c-3.028-3.979-6.733-2.877-9.83-0.628C797.57,440.534,791.838,439.255,785.922,436.874z"/>
		<path fill="#340026" d="M685.862,404.675c0.893,0.601,1.786,1.201,2.681,1.804c0.544,2.362,1.795,3.803,4.446,3.429
			c0,0-0.056-0.041-0.055-0.041c0.158,1.817,1.046,2.619,2.896,2.085c0,0-0.099-0.057-0.099-0.057
			c0.876,3.173,3.285,2.801,5.682,2.458c0,0,0.901,0.489,0.907,0.493c0.473,1.695,1.365,2.75,3.319,2.21
			c0,0-0.073-0.045-0.073-0.045c-0.012,16.349-3.802,31.636-12.671,45.53c-1.792,2.808-3.785,5.398-6.541,7.289
			c-5.015,3.443-9.091,3.019-12.954-1.7c-6.337-7.74-5.468-17.049-4.416-25.95c0.438-3.701,5.334-4.631,8.637-6.25
			c7.978-3.909,8.148-4.59,3.436-11.537c-0.231-0.34-0.467-0.677-0.707-1.011C672.197,412.087,672.684,410.432,685.862,404.675z"/>
		<path fill="#340026" d="M813.258,436.908c2.718-1.75,5.59-3.303,8.125-5.287c6.755-5.284,13.968-7.748,22.378-4.449
			c1.987,14.636-1.175,28.532-6.812,41.837c-2.7,6.375-6.76,12.18-10.281,18.198c-2.7,4.616-6.222,4.826-10.216,1.64
			c-0.638-0.509-1.164-1.157-1.777-1.701c-12.558-11.152-12.427-13.332,1.353-22.392c8.03-5.279,8.044-5.843,0.304-11.533
			C808.849,447.721,808.73,447.085,813.258,436.908z"/>
		<path fill="#FFFFFF" d="M946.436,454.141c-0.674,1.623-2.169,2.163-3.642,2.749C943.766,455.662,944.399,453.967,946.436,454.141z
			"/>
		<path fill="#FFFFFF" d="M326.054,491.517c-1.748,3.129-3.709,5.922-7.988,5.065C319.761,493.371,321.939,490.917,326.054,491.517z
			"/>
		<path fill="#FFFFFF" d="M311.167,503.947c-0.853,2.32-2.322,3.448-4.859,2.511C307.187,504.189,308.979,503.685,311.167,503.947z"
			/>
		<path fill="#FFFFFF" d="M314.843,501.388c-0.809,1.424-1.865,2.49-3.639,2.521C311.71,502.048,313.101,501.465,314.843,501.388z"
			/>
		<path fill="#FFFFFF" d="M328.591,489.092c0.155,1.839-1.016,2.295-2.514,2.41C326.189,489.941,327.154,489.271,328.591,489.092z"
			/>
		<path fill="#FFFFFF" d="M332.169,486.657c-0.759,1.439-1.674,2.645-3.567,2.394C329.256,487.457,330.606,486.898,332.169,486.657z
			"/>
		<path fill="#FFFFFF" d="M212.166,601.072c0.54-0.35,1.117-0.429,1.728-0.231c0.061,1.37-0.714,2.024-1.943,2.292
			C211.635,602.406,211.707,601.718,212.166,601.072z"/>
		<path fill="#FFFFFF" d="M211.931,603.14c-0.17,1.677-1.149,2.808-2.491,3.697C209.548,605.119,210.082,603.686,211.931,603.14z"/>
		<path fill="#FFFFFF" d="M447.421,524.077c-3.674-2.597-7.66-3.419-11-0.002c-4.14,4.235-9.682,7.505-10.946,14.025
			c-2.893,0.653-4.477,2.82-5.936,5.13c-2.222,1.369-4.443,2.737-6.668,4.112c-12.554,3.649-24.063,3.919-32.059-9.033
			c-0.865-1.401-3.592-1.653-5.456-2.437c-0.412-0.393-0.514-0.855-0.304-1.39c0.841-4.513,0.521-8.858-1.815-12.919
			c-2.102-9.485,1.976-17.842,4.822-26.427c3.575-3.289,8.219-5.89,7.596-11.863c0.106-1.1,0.725-1.638,1.819-1.657
			c6.683,1.352,9.982-2.976,13.017-7.747c0,0-0.216,0.268-0.217,0.267c0.906-1.076,1.812-2.151,2.719-3.226
			c6.364-7.316,12.864-14.48,21.543-19.199c1.447-0.427,2.743-1.04,3.257-2.625c0,0-0.234,0.168-0.234,0.168
			c2.074-0.194,4.28-0.134,5.125-2.679c0,0-0.165,0.094-0.165,0.094c3.378,0.411,6.365-0.332,9.098-2.516
			c7.245-5.79,16.361-6.861,24.843-9.444c4.524-1.378,9.895,0.865,13.906-3.07c9.567-1.219,16.358,3.661,22.755,9.924
			c3.253,3.184,4.655,6.534,4.062,10.998c-1.994,15.01-2.888,30.206-9.973,44.124c-4.74,9.311-12.651,14.046-22.048,17.203
			c-7.399,2.485-14.72,5.203-22.076,7.814C451.195,522.491,449.308,523.284,447.421,524.077z"/>
		<path fill="#6172C4" d="M442.59,575.841c-0.704-13.423,1.046-26.54,4.924-39.389c-0.82,11.317,0.444,22.779-2.51,33.955
			C444.477,572.398,444.16,574.364,442.59,575.841z"/>
		<path fill="#6172C4" d="M440.19,590.431l-0.955,0.16c0,0-0.931-0.267-0.929-0.275c-0.314-5.389,1.666-10.088,4.337-14.581
			C441.512,580.581,444.499,586.115,440.19,590.431z"/>
		<path fill="#FFB048" d="M447.421,524.077c1.887-0.793,3.774-1.587,5.662-2.376c-0.357,3.149-0.715,6.294-1.071,9.439
			c-0.498-0.005-0.998-0.007-1.499-0.005C449.482,528.782,448.452,526.43,447.421,524.077z"/>
		<path fill="#6172C4" d="M450.513,531.135c0.5-0.002,1.001-0.001,1.499,0.005c0.046,1.536-0.932,2.142-2.23,2.46
			C450.024,532.777,450.269,531.956,450.513,531.135z"/>
		<path fill="#FFFFFF" d="M457.441,744.203c0.638-2.549,2.536-2.787,4.689-2.56C461.428,744.073,459.568,744.383,457.441,744.203z"
			/>
		<path fill="#FFFFFF" d="M462.236,741.736c-0.008-1.672,0.991-2.282,2.493-2.363C464.407,740.698,463.594,741.505,462.236,741.736z
			"/>
		<path fill="#FFFFFF" d="M464.755,739.304c0.034-1.604,0.813-2.445,2.458-2.4C466.903,738.225,466.087,739.029,464.755,739.304z"/>
		<path fill="#FFFFFF" d="M467.345,736.879c0.266-1.332,1.128-1.823,2.415-1.709C468.954,735.74,468.149,736.31,467.345,736.879z"/>
		<path fill="#6172C4" d="M701.414,414.352c-2.396,0.343-4.806,0.715-5.682-2.458C698.443,410.824,700.202,411.957,701.414,414.352z
			"/>
		<path fill="#6172C4" d="M692.99,409.908c-2.651,0.374-3.902-1.067-4.446-3.429C690.85,406.55,692.715,407.198,692.99,409.908z"/>
		<path fill="#6172C4" d="M705.639,417.055c-1.954,0.54-2.845-0.515-3.319-2.21C704.144,414.496,705.495,414.869,705.639,417.055z"
			/>
		<path fill="#6172C4" d="M695.831,411.951c-1.85,0.535-2.739-0.267-2.896-2.085C694.694,409.456,695.812,409.94,695.831,411.951z"
			/>
		<path fill="#FFFFFF" d="M161.059,555.381c-1.245,0.63-2.4,1.965-3.944,0.766c-1.558-1.211-0.878-2.499,0.045-3.734
			C158.457,553.402,159.758,554.391,161.059,555.381z"/>
		<path opacity="0.35" fill="#2D1E4C" d="M161.059,555.381c3.723-0.725,7.279-2.225,9.942-4.733
			c10.187-9.596,23.381-10.371,35.987-11.862c6.964-0.824,13.771-2.55,21.726-1.67c-5.897,3.721-11.625,7.748-17.722,11.107
			c-21.803,12.01-42.003,26.327-60.933,42.397c-28.747,24.405-47.584,55.692-60.894,90.464c-4.448,11.619-4.338,24.332-5.95,36.602
			c-0.424,3.232,0.315,6.633-2.226,11.214c-4.266-26.083-4.728-50.406,4.224-74.295c1.115-2.975,4.043-5.672,2.127-9.216
			c-2.688-4.97,0.267-8.821,2.435-12.647c9.83-17.352,19.495-34.859,32.375-50.208c6.396-7.623,14.212-13.833,22.767-18.981
			c3.297-1.984,4.52-4.348,5.699-8.365c5.108-17.405,6.259-35.563,11.303-52.978c5.723-19.759,15.182-37.276,27.899-53.227
			c0.513-0.643,0.934-1.441,1.591-1.875c19.954-13.202,39.522-26.554,64.786-28.613c16.248-1.324,32.72-2.737,48.558-7.815
			c7.456-2.39,15.677-2.505,23.142-0.256c5.389,1.624,10.577,1.732,15.797,1.303c14.31-1.176,28.596-2.711,42.847-4.471
			c4.026-0.497,8.005-1.981,11.82-3.485c17.218-6.79,34.202-14.214,51.604-20.485c11.592-4.178,23.749-6.786,35.646-10.123
			c3.896-1.093,6.649,0.4,7.745,4.055c1.149,3.832-1.008,6.357-4.57,7.452c-1.94,0.596-4.077,0.78-6.122,0.767
			c-23.44-0.143-44.147,9.335-65.068,18.218c-25.71,10.917-52.206,18.293-80.534,16.07c-26.126-2.05-50.672,5.755-75.467,11.902
			c-7.297,1.809-13.476,6.309-19.438,10.722c-20.329,15.045-38.602,32.022-53.368,52.91c-12.704,17.972-23.908,36.536-31.623,57.153
			c-0.923,1.235-1.603,2.523-0.045,3.734C158.659,557.346,159.814,556.01,161.059,555.381z"/>
		<path opacity="0.35" fill="#2D1E4C" d="M255.952,939.593c-1.872-5.456-0.454-11.12-0.043-16.617
			c1.312-17.557,6.665-33.623,18.306-47.227c3.208-3.749,6.045-7.699,10.978-9.687c6.773-2.73,9.605-10.198,15.391-13.999
			c15.766-10.356,29.203-24.372,47.648-30.552c2.456-0.823,3.818-2.761,5.108-5.011c8.984-15.677,24.545-21.022,40.612-25.476
			c1.166-0.323,2.861-0.778,3.617-0.225c8.665,6.343,13.318-0.348,17.888-5.726c10.642-12.527,24.091-22.385,33.544-36.086
			c3.481-5.046,8.604-9.009,15.003-10.352c3.331-0.699,6.133-1.791,8.301-4.703c2.38-3.195,5.772-4.992,9.74-2.954
			c2.836,1.457,4.641-0.106,6.753-1.297c1.84-1.038,4.144-2.063,5.894-1.021c9.069,5.4,21.191,4.101,28.753,11.614
			c5.146,5.113,8.655,12.224,7.387,20.765c-1.84,12.388-8.483,23.114-11.22,35.158c-0.676,2.975-3.281,4.592-6.833,3.7
			c-1.731-3.901-0.739-8.095-1.009-12.136c-1.117-16.716-7.704-23.865-24.345-25.463c-13.281-1.275-25.854,1.174-35.527,10.872
			c-19.874,19.926-42.318,36.871-63.2,55.613c-7.039,6.318-6.97,6.605-15.838,1.542c-3.577-2.042-6.372-0.82-9.085,1.184
			c-4.786,3.538-7.793,8.523-10.109,13.856c-1.178,2.714-2.109,4.844-5.399,6c-24.55,8.631-42.874,25.658-59.744,44.682
			c-10.734,12.103-20.51,24.804-27.506,39.481C260.146,937.354,259.25,939.251,255.952,939.593z"/>
		<path opacity="0.35" fill="#2D1E4C" d="M813.695,884.129c-9.633-1.821-14.443,4.134-18.218,11.222
			c-3.917,7.354-6.145,15.421-7.044,23.62c-2.877,26.236-6.588,52.455-1.675,78.927c1.209,6.516,2.521,12.918,4.616,19.187
			c0.602,1.802,1.984,4.081-0.798,5.164c-2.124,0.827-4.555-0.125-5.208-2.16c-2.737-8.537-7.48-16.131-10.213-24.818
			c-5.014-15.936-4.315-32.244-6.295-48.355c-2.193-17.841,0.497-35.596,3.6-52.87c1.768-9.845,9.136-18.921,14.93-27.72
			c3.718-5.647,7.115-11.691,14.193-15.021c3.834-1.803,5.611-7.752,8.615-11.598c5.346-6.845,10.547-13.75,20.787-13.614
			c3.897,0.052,10.204-10.994,9.712-16.081c-1.022-10.575-1.544-20.924-9.58-29.779c-6.739-7.427-5.188-11.434,3.023-18.174
			c3.488-2.863,6.837-5.911,10.096-9.034c5.643-5.407,11.334-10.398,18.744-13.706c8.213-3.667,15.818-8.767,22.697-14.791
			c3.838-3.361,8.26-4.327,11.919,0.113c2.638,3.202,6.444,3.408,9.65,5.1c2.956,1.561,3.643,4.345,2.35,7.426
			c-1.292,3.078-3.78,2.954-6.115,1.636c-3.695-2.087-7.11-1.66-10.494,0.473c-8.718,5.495-17.62,10.797-24.265,18.912
			c-6.777,8.276-10.453,17.184-8.534,28.503c3.704,21.851-0.408,42.661-10.61,62.339c-2.266,4.371-3.577,9.232-5.771,13.647
			c-2.931,5.899-5.663,5.962-8.945,0.002c-1.861-3.38-4.043-3.548-7.039-2.433c-8.666,3.226-12.978,9.71-13.883,18.694
			C813.779,880.534,813.784,882.143,813.695,884.129z"/>
		<path opacity="0.35" fill="#2D1E4C" d="M502.623,479.117c-0.296-1.441-0.726-2.276-0.577-2.99
			c4.437-21.253-16.991-29.564-33.365-23.42c-17.695,6.641-32.415,17.875-47.125,29.165c-15.131,11.612-28.082,25.54-40.941,39.54
			c-2.929,3.189-5.479,8.367-10.044,1.071c-1.648-2.633-5.279-1.211-7.991,0.001c-8.129,3.633-12.751,13.034-9.784,22.822
			c1.849,6.099,0.486,9.895-3.739,14.127c-5.248,5.258-9.144,11.66-12.902,18.108c-12.478,21.413-12.388,43.916-6.302,67.071
			c0.716,2.725,4.01,6.522-0.544,8.365c-3.713,1.503-6.038-2.005-7.632-4.869c-2.603-4.679-5.152-9.45-7.077-14.432
			c-4.226-10.932-7.871-22.09-12.133-33.007c-1.422-3.642-0.144-6.516,1.173-9.43c4.573-10.121,8.851-20.358,16.565-28.779
			c6.928-7.564,11.408-17.277,20.235-23.218c2.378-1.601,3.374-4.577,2.28-6.506c-3.556-6.269-0.463-12.742-1.062-19.076
			c-1.656-17.494,18.426-29.667,34.517-21.455c4.086,2.085,5.031-1.008,6.914-2.613c13.172-11.23,26.14-22.702,39.406-33.819
			c13.368-11.203,28.834-18.225,45.836-22.023c4.187-0.935,8.105-0.665,12.145,0.656c3.119,1.02,6.37,1.758,9.619,2.232
			c5.57,0.811,12.019-0.394,14.568,6.749c3.849,10.788,9.224,21.454,3.784,33.261C507.551,478.59,505.685,479.662,502.623,479.117z"
			/>
		<path opacity="0.35" fill="#2D1E4C" d="M1006.441,503.307c-5.686,3.914-11.365,7.498-16.715,12.214
			c-15.184,13.385-32.55,23.711-51.714,30.665c-4.096,1.486-7.344,0.378-8.681-4.182c-2.617-8.927-7.396-15.599-16.043-20.274
			c-6.206-3.356-8.864-11.345-15.287-15.361c-2.184-1.366-1.161-4.597,0.264-6.788c2.715-4.177,6.31-7.281,10.549-10.064
			c8.921-5.857,8.734-6.141,10.031,4.627c1.361,11.307,7.623,17.603,19.249,18.917c13.893,1.57,27.101-1.59,39.774-6.878
			c10.689-4.46,20.84-10.086,29.32-18.127c4.669-4.428,9.261-5.877,15.546-3.433c8.044,3.128,12.838,1.803,17.816-5.479
			c2.706-3.958,5.178-4.654,9.779-4.892c15.564-0.802,28.025-8.738,38.877-19.414c1.452-1.429,2.302-3.475,3.771-4.88
			c4.151-3.973,9.448-3.874,14.554-0.259c4.882,3.456,5.747,7.283,2.761,12.672c-7.113,12.836-16.241,22.854-31.649,25.136
			c-3.666,0.543-7.303,1.29-10.974,1.794c-6.902,0.948-13.606,2.672-20.73,2.898c-6.925,0.22-8.554,9.041-14.281,12.101
			c-2.532,1.353-4.742,3.314-7.287,4.635C1015.857,513.87,1012.865,512.974,1006.441,503.307z"/>
		<path opacity="0.35" fill="#2D1E4C" d="M479.364,414.934c1.602,4.103-1.794,7.297-2.012,11.071
			c-6.202,2.861-12.479,4.906-19.345,6.284c-9.594,1.927-19.196,5.713-25.49,14.379l0.165-0.094
			c-2.572-0.759-3.912,0.838-5.125,2.679l0.234-0.168c-1.529,0.325-2.572,1.253-3.258,2.625
			c-8.678,4.719-15.179,11.883-21.543,19.199c-1.23,0.803-2.503,1.569-2.718,3.227l0.216-0.268c-5.89-0.022-9.929,3.066-13.02,7.749
			c-1.092,0.018-1.71,0.555-1.817,1.655c-5.632,3.294-11.387,5.836-18.186,3.884c-2.044-0.587-3.928,0.206-5.339,1.884
			c-6.578,4.479-13.342,8.727-18.562,14.898c-4.125,1.268-2.791,4.303-2.289,7.069c0.085,2.22,0.17,4.44,0.255,6.66l0.003-0.383
			c-0.924,11.704,1.563,24.49-10.382,32.694c-1.29,0.878-2.64,1.707-2.833,3.479l0.093-0.147
			c-9.375,3.799-14.363,11.353-17.526,20.469c-11.926,11.571-10.645,24.799-4.049,38.105c6.133,12.37,13.146,24.304,19.772,36.43
			c-0.03,3.428-0.742,6.913-3.428,8.986c-8.67,6.694-17.392,13.721-28.019,16.819c-10.113,2.949-20.557,2.334-29.855-3.309
			c-6.03-3.66-12.256-4.152-18.98-3.789c-9.885,0.533-20.157-0.903-29.59,1.337c-9.466,2.248-16.16,10.94-24.96,15.584
			c-8.051,4.249-14.352,10.977-20.127,18.1c-3.107,3.833-6.924,7.085-10.109,10.862c-4.431,5.254-8.945,5.008-13.828,0.862
			c-2.001-8.561,4.609-14.223,7.154-21.252c8.023-10.537,12.752-22.714,17.39-34.936c2.7-9.712,6.882-19.897,14.055-25.736
			c9.117-7.42,14.701-17.396,23.125-25.003c1.342-0.889,2.321-2.02,2.491-3.697c0,0,0.02-0.007,0.02-0.007
			c1.229-0.269,2.004-0.922,1.94-2.287c0.21-0.916,0.419-1.832,0.629-2.748c0,0-0.137,0.193-0.137,0.193
			c3.612-0.894,5.093-3.224,4.628-6.866c1.494-7.746,8.267-11.243,13.112-16.292c0.743-0.645,1.484-1.29,2.226-1.936
			c0,0-0.243,0.257-0.243,0.256c1.363-0.425,2.353-1.229,2.714-2.671c0,0-0.171,0.182-0.171,0.182
			c1.572-0.183,2.5-1.022,2.674-2.627c0,0-0.166,0.168-0.166,0.168c1.639-0.103,2.629-0.867,2.657-2.61c0,0-0.087,0.122-0.087,0.122
			c3.04-0.251,2.484-2.453,2.389-4.404c8.074-11.82,20.093-19.209,31.127-27.711c8.988-3.571,16.72-8.636,21.119-17.68
			c0,0-0.159,0.16-0.159,0.16c2.122-1.291,4.334-2.493,5.147-5.104c0,0-0.163,0.156-0.163,0.156c2.68-0.719,5.09-1.711,5.149-5.083
			c0,0-0.028,0.107-0.027,0.107c2.536,0.937,4.006-0.191,4.859-2.511c0,0,0.037-0.038,0.038-0.038
			c1.774-0.031,2.83-1.098,3.639-2.521c1.073-1.602,2.146-3.204,3.222-4.806c4.28,0.857,6.24-1.937,7.988-5.065
			c0,0,0.023-0.015,0.023-0.015c1.498-0.114,2.669-0.57,2.514-2.41c0,0,0.01-0.041,0.011-0.041c1.893,0.251,2.808-0.956,3.567-2.394
			c15.928-14.325,32.801-27.2,53.082-34.926c1.886-0.719,3.591-1.964,5.303-3.082c14.067-9.184,29.454-15.253,45.522-19.945
			C450.607,424.459,464.263,417.427,479.364,414.934z"/>
		<path opacity="0.35" fill="#2D1E4C" d="M422.613,574.756c6.732-8.545,6.698-18.404,5.533-28.483
			c-0.125-1.698,0.208-3.814-2.708-2.955c0,0,0.108,0.018,0.108,0.018c1.974-1.773,0.167-3.495-0.071-5.238
			c1.265-6.518,6.806-9.787,10.947-14.022c3.34-3.417,7.326-2.595,11,0.002c1.031,2.353,2.061,4.705,3.092,7.058
			c-0.244,0.821-0.489,1.643-0.733,2.464c-0.756,0.952-1.511,1.903-2.266,2.853c-3.878,12.849-5.628,25.966-4.924,39.389
			c0,0,0.054-0.106,0.054-0.106c-2.672,4.493-4.651,9.191-4.336,14.573c-3.051,6.933-2.839,14.297-1.92,21.465
			c0.604,4.707-0.241,8.719-2.118,12.786c-7.307,2.148-14.759,5.96-21.194-1.853c-0.154-3.951,0.291-7.682,1.545-11.584
			c1.367-4.258,2.891-9.515-3.164-12.288c-0.613-6.469-1.169-12.922,4.831-17.569c1.975-0.145,4.131-0.039,4.159-2.943
			c0,0-0.12,0.112-0.12,0.112C422.51,578.091,422.458,576.359,422.613,574.756z"/>
		<path opacity="0.35" fill="#BC6C0D" d="M503.595,692.091c2.136-15.727,3.699-31.561,6.624-47.139
			c1.736-9.243,3.136-18.454,4.002-27.791c0.696-7.5-0.488-15.325,6.503-21.342c2.239-1.927,2.131-6.834,2.671-10.442
			c3.625-24.219,7.791-48.419,14.646-71.872c7.776-26.606,11.056-54.264,20.054-80.524c2.885-8.418,2.065-17.409,4.532-26.159
			c6.908-24.501,19.174-46.717,27.939-70.379c8.489-22.918,17.322-45.71,25.679-68.675c5.014-13.776,14.746-23.169,26.706-30.75
			c1.363-0.864,2.934-1.393,4.391-2.113c3.011-1.488,6.095-2.923,8.858,0.27c2.316,2.676,0.883,5.316-0.468,7.907
			c-4.147,7.955-7.928,16.121-12.449,23.856c-10.545,18.04-18.253,37.365-25.939,56.669
			c-24.62,61.832-43.717,125.463-61.484,189.539c-8.612,31.06-17.674,62.005-22.695,93.888c-4.818,30.597-9.35,61.256-12.054,92.133
			c-0.394,4.504-0.606,8.282-6.213,8.47c-6.963,0.234-11.634-3.596-11.417-9.419c0.075-2.011,0.676-4.002,1.036-6.003
			C504.211,692.174,503.903,692.132,503.595,692.091z"/>
		<path opacity="0.35" fill="#BC6C0D" d="M727.291,808.339c5.711,0.375,11.357-0.106,17.015-0.964
			c3.273-0.497,4.308,1.74,3.446,4.607c-1.522,5.062-5.121,8.263-10.027,9.854c-1.883,0.61-4.022,0.735-6.021,0.631
			c-17.389-0.898-34.775-1.875-52.158-2.888c-3.664-0.214-7.236-0.602-9.779-3.973c-2.847-3.776-4.341-7.051-1.946-12.13
			c3.881-8.232,7.472-16.571,10.108-25.492c2.703-9.147,2.454-18.366,4.372-27.399c0.503-2.37,0.554-4.86,1.267-7.154
			c0.675-2.17,2.75-3.018,4.878-2.821c2.153,0.2,4.047,1.468,4.127,3.771c0.126,3.633,0.262,7.383-0.471,10.904
			c-2.122,10.185-0.943,20.274,0.312,30.363c1.846,14.836,8.856,21.446,23.898,22.648
			C719.95,808.586,723.63,808.339,727.291,808.339z"/>
		<path opacity="0.35" fill="#BC6C0D" d="M619.164,792.646c-5.238,13.656-5.245,13.758-17.093,13.011
			c-5.978-0.377-11.865-0.185-17.393-4.196c-3.298-2.393-8.48-2.612-12.883-2.966c-7.877-0.633-14.95-3.822-22.182-6.38
			c-6.785-2.4-7.25-4.278-3.379-10.451c1.111-1.773,2.323-3.169,1.986-5.381c-2.197-14.421,3.683-28.112,3.899-42.349
			c0.07-4.63,0.168-11.514,6.724-10.971c6.777,0.561,4.72,7.595,4.732,12.037c0.021,8.152,0.276,16.24,1.283,24.337
			c2.831,22.78,22.989,38.253,45.834,34.976C613.406,793.923,616.08,793.26,619.164,792.646z"/>
		<path opacity="0.35" fill="#BC6C0D" d="M760.773,169.617c0.371,2.619-1.333,4.065-3.193,4.672
			c-21.344,6.976-32.919,24.483-45.053,41.435c-2.129,2.974-4.46,5.827-6.935,8.519c-1.461,1.589-3.581,2.084-5.559,0.842
			c-2.034-1.277-2.372-3.196-1.125-5.246c9.309-15.306,15.374-32.453,26.533-46.707c3.221-4.115,6.94-6.544,12.622-5.328
			c5.282,1.131,10.513-0.525,15.736-1.428C756.759,165.864,759.513,166.382,760.773,169.617z"/>
		<path opacity="0.35" fill="#BC6C0D" d="M820.54,234.52c3.026-14.287,6.036-28.577,9.087-42.858
			c1.353-6.332,5.545-9.247,11.557-7.388c4.75,1.469,11.872-3.089,14.055,3.692c1.707,5.302-5.578,5.913-8.064,9.379
			c-4.769,6.647-8.815,13.582-11.487,21.379c-2.234,6.518-4.678,13.026-8.567,18.798c-1.13,1.677-2.984,2.929-5.225,2.08
			C819.298,238.616,819.968,236.479,820.54,234.52z"/>
		<path opacity="0.35" fill="#BC6C0D" d="M680.97,374.053c-2.822,5.387-4.52,11.472-6.121,17.651
			c-0.777,2.999-4.576,2.991-7.114,0.726c-1.481-1.322-2.678-3.031-3.759-4.722c-4.996-7.813-8.9-16.37-15.99-22.736
			c-2.301-2.066-3.426-4.942-1.212-7.532c2.649-3.099,5.767-2.161,8.528,0.264c1.825,1.602,3.529,3.345,5.395,4.896
			c4.414,3.67,6.482,12.31,15.359,6.605C678.124,367.878,680.059,371.021,680.97,374.053z"/>
		<path opacity="0.35" fill="#BC6C0D" d="M867.009,415.181c-4.412-0.349-8.715-1.489-8.776-7.321
			c-0.044-4.233,1.993-6.987,6.776-5.926c1.898,0.421,3.658,1.942,5.509,1.998c3.604,0.109,6.805,0.779,6.796,4.916
			c-0.009,4.619-3.984,5.422-7.59,6.154C868.948,415.16,868.129,415.114,867.009,415.181z"/>
		<path fill="#340026" d="M698.73,694.909c-30.778-0.322-58.366-4.91-85.232-13.882c-10.469-3.496-11.989-5.528-10.146-16.156
			c5.366-30.943,12.178-61.563,20.419-91.881c4.331-15.93,7.772-32.1,11.874-48.095c2.544-9.919,2.803-9.597,13.139-11.173
			c41.563-6.338,82.38-3.781,122.328,9.792c17.761,6.034,34.231,14.513,48.712,26.529c39.274,32.588,38.925,76.448-1.032,108.226
			c-25.711,20.449-56.028,29.507-87.945,33.944C719.412,693.801,707.898,695.345,698.73,694.909z M687.448,687.834
			c10.264,2.871,20.059-3.654,29.436-11.716c7.547-6.489,14.649-13.36,20.581-21.375c28.34-38.286,16.952-77.334-27.537-94.272
			c-21.319-8.117-43.375-9.305-65.888-7.307c-5.976,0.53-8.193,2.616-9.801,8.419c-8.931,32.244-17.023,64.651-22.638,97.66
			c-2.103,12.364-2.426,12.814,9.668,17C641.69,683.309,662.874,686.616,687.448,687.834z M639.94,545.655
			c5.96,0,12.085,0.067,18.207-0.012c26.058-0.336,51.171,3.388,73.41,18.167c27.807,18.479,36.01,49.24,21.426,79.324
			c-6.777,13.98-16.718,25.48-28.197,35.797c-2.275,2.045-6.036,3.184-5.641,7.95c32.145-3.129,62.595-10.975,89.756-29.113
			c9.366-6.254,17.582-13.781,23.82-23.212c12.343-18.66,12.872-37.861,1.944-57.316c-4.496-8.005-10.634-14.701-17.59-20.663
			c-11.737-10.059-25.078-17.385-39.352-23.115c-36.458-14.635-74.344-18.177-113.177-14.744
			c-21.366,1.889-23.637,4.035-25.318,25.741C639.206,544.758,639.591,545.088,639.94,545.655z"/>
		<path fill="#340026" d="M955.851,446.505c9.847-3.445,14.168-7.914,14.85-17.438c0.762-10.66,16.708-22.324,28.896-20.877
			c8.315,0.987,11.894-2.502,16.25-7.796c8.696-10.569,19.196-19.348,29.521-28.269c7.203-6.222,15.306-7.656,24.282-4.651
			c8.29,2.776,15.986,6.813,23.179,11.666c10.987,7.413,20.642,16.49,30.595,25.207c13.514,11.836,10.816,26.235,0.838,39.755
			c-3.724,5.045-7.2,9.777-9.31,15.695c-1.373,3.852-3.921,7.266-5.644,11.014c-5.967,12.979-16.512,19.146-30.272,20.405
			c-7.818,0.715-15.668,1.299-23.513,1.448c-5.351,0.102-8.766,1.798-12.275,6.352c-8.207,10.65-18.507,18.098-33.014,11.907
			c-3.502-1.494-5.505,0.184-7.732,1.889c-17.482,13.388-36.555,24.147-56.364,33.572c-5.975,2.843-6.259,5.88-4.212,11.635
			c10.46,29.411,10,59.031,1.617,88.984c-7.492,26.767-15.341,53.275-31.933,76.123c-3.023,4.162-2.256,7.034,0.486,10.876
			c14.184,19.881,16.003,42.036,10.951,65.154c-3.449,15.781-8.322,31.172-15.678,45.595c-2.621,5.14-3.286,9.753-1.627,15.311
			c4.328,14.501,0.078,27.09-10.524,37.265c-4.459,4.279-6.571,8.528-7.515,14.705c-4.636,30.342-11.451,60.1-27.478,86.901
			c-6.179,10.333-12.868,20.31-21.904,28.341c-16.346,14.527-37.755,12.496-52.469-4.921c-6.762-8.004-11.321-17.26-13.365-27.611
			c-5.464-27.67-9.352-55.526-6.026-83.76c3.04-25.814,10.977-49.252,35.399-63.262c2.278-1.307,3.476-3.418,4.756-5.557
			c5.319-8.886,12.884-15.562,22.831-17.935c9.034-2.155,8.567-8.728,9.555-15.127c1.147-7.431-0.658-13.999-6.066-19.283
			c-2.043-1.996-4.746-0.826-7.078-0.189c-12.82,3.506-25.881,5.068-39.128,6.041c-7.14,0.525-14.038,0.065-20.94-1.115
			c-5.6-0.958-8.348,0.98-9.747,6.489c-1.622,6.39-4.129,12.552-6.172,18.839c-5.704,17.554-21.42,29.346-39.764,29.219
			c-19.429-0.135-38.879-0.53-58.05-4.211c-14.42-2.768-16.42-5.613-15.374-20.123c0.924-12.82,3.602-25.369,5.912-37.963
			c0.922-5.026-0.015-7.211-5.473-8.45c-16.115-3.656-16.243-3.957-16.96,12.705c-0.23,5.339-1.077,10.597-1.131,15.993
			c-0.103,10.363-14.598,23.114-25.128,23.108c-22.576-0.011-44.2-5.584-65.767-11.425c-6.271-1.698-10.746-5.324-11.235-13.86
			c-8.471,9.24-15.493,17.205-22.851,24.847c-9.494,9.861-20.156,18.399-31.495,26.035c-4.638,3.123-7.605,6.755-9.369,12.351
			c-4.504,14.287-14.147,24.397-28.729,28.376c-6.605,1.802-10.438,5.588-14.306,10.643c-24.332,31.799-54.759,54.888-94.338,64.307
			c-11.792,2.806-23.767,3.201-35.536-0.496c-16.871-5.299-26.619-18.19-27.486-35.741c-0.85-17.214,4.831-32.666,13.346-47.046
			c18.466-31.183,44.784-53.852,77.649-68.826c4.734-2.157,8.14-4.56,10.986-9.051c9.745-15.376,24.4-22.087,42.242-20.488
			c6.158,0.552,10.216-0.87,14.173-5.058c11.618-12.292,23.38-24.449,35.586-37.181c-1.814-2.266-5.611-2.446-8.848-3.723
			c-9.936-3.919-11.458-5.79-10.909-16.617c1.488-29.313,3.329-58.607,4.922-87.915c0.2-3.673,3.32-8.522-3.04-10.26
			c-5.538-1.513-12.753,0.843-15.213,4.968c-3.173,5.32-5.812,10.999-9.36,16.047c-4.804,6.837-9.959,13.838-20.207,9.365
			c-3.029-1.322-4.37,1.146-6.19,2.749c-11.832,10.423-18.33,12.022-32.157,3.581c-11.328-6.915-19.428-7.061-29.904,2.102
			c-13.982,12.229-31.059,14.569-48.947,8.062c-4.646-1.69-9.601-2.515-14.296-4.089c-15.952-5.351-30.9-3.376-45.094,5.554
			c-17.952,11.295-33.645,25.313-48.856,39.96c-14.056,13.535-18.034,31.064-20.011,49.418c-2.389,22.174-4.942,44.343-4.127,66.719
			c0.045,1.231-0.05,2.492-0.27,3.704c-0.43,2.365-0.402,5.366-3.592,5.653c-2.391,0.215-3.387-2.082-4.114-3.994
			c-9.894-26.009-25.923-48.886-37.744-73.885c-13.678-28.925-16.436-59.511-11.523-90.893
			c6.771-43.244,25.422-80.051,59.611-108.149c4.992-4.103,8.152-8.694,10.471-14.771c6.076-15.918,9.785-32.462,13.555-48.933
			c11.775-51.444,52.149-83.818,97.925-88.843c24.682-2.709,49.368-5.702,74.143-5.559c31.509,0.182,61.588-5.675,90.867-16.726
			c8.89-3.355,17.765-6.748,26.642-10.136c10.071-3.844,20.334-8.204,31.15-7.264c9.73,0.846,12.97-4.193,15.959-11.668
			c11.21-28.031,24.085-55.293,38.167-82.009c14.983-28.425,14.764-28.66,45.861-37.137c12.346-3.365,24.842-6.259,37.391-8.759
			c5.854-1.166,9.245-3.627,11.686-9.295c3.746-8.696,9.043-16.709,13.197-25.248c4.247-8.731,10.953-14.179,19.925-17.424
			c6.601-2.387,13.072-5.153,19.524-7.931c24.639-10.61,50.372-12.184,76.629-9.341c8.624,0.934,17.226,2.089,25.822,3.261
			c6.07,0.827,7.285,4.391,5.389,9.796c-1.986,5.662-5.469,10.831-6.689,18.997c12.399-5.115,23.536-9.147,34.145-14.271
			c7.913-3.821,15.588-4.202,24.008-2.815c16.826,2.771,33.028,7.456,48.654,14.206c11.777,5.087,12.065,5.144,11.014,18.479
			c-1.006,12.762-2.497,25.5-4.238,38.185c-0.828,6.035,0.772,9.568,6.118,13.137c59.553,39.751,80.735,108.743,54.215,175.303
			C957.704,440.997,957.113,442.904,955.851,446.505z M670.454,815.977c22.316,3.729,44.277,2.738,66.044,4.37
			c5.138,0.385,7.003-2.515,8.345-7.101c4.409-15.066,9.224-30.015,13.98-44.978c3.729-11.732,4.18-12.288,16.734-10.806
			c14.556,1.718,29.034,1.297,43.132-2.173c62.688-15.431,103.036-54.981,118.993-116.973
			c13.381-51.984,0.653-97.433-43.083-131.772c-7.157-5.619-7.138-6.422,1.043-10.673c17.569-9.13,32.329-21.44,43.802-37.606
			c43.182-60.841,23.514-152.141-41.256-189.322c-7.115-4.084-8.79-8.095-7.758-15.503c1.936-13.909,2.924-27.947,4.651-41.888
			c0.676-5.457-1.237-8.351-6.284-10.311c-11.948-4.638-23.805-9.584-36.443-11.977c-20.028-3.792-16.78-7.44-21.359,14.524
			c-2.106,10.104-3.977,20.258-6.206,30.334c-0.979,4.424-3.521,7.84-8.727,6.537c-14.467-3.619-29.34-4.763-43.947-7.502
			c-5.03-0.943-6.988-3.826-6.144-8.827c1.178-6.982,3.587-13.571,6.296-20.063c3.183-7.626,6.336-15.267,9.685-22.82
			c1.644-3.71,1.805-6.471-3.127-6.991c-14.382-1.516-28.707-3.631-43.242-3.428c-4.239,0.059-6.845,1.665-8.994,5.185
			c-9.04,14.81-19.281,29.064-24.385,45.836c-2.343,7.7-6.72,10.402-14.125,10.919c-11.538,0.805-23.016,2.623-34.559,3.16
			c-9.524,0.444-15.517,3.847-20.439,12.725c-27.182,49.034-48.145,100.717-64.658,154.056
			c-28.151,90.934-46.281,184.231-62.227,277.958c-0.899,5.287-1.048,10.697-1.759,16.021c-0.779,5.838,0.985,9.013,7.314,10.464
			c11.66,2.674,23.092,6.345,34.614,9.618c10.707,3.042,10.72,3.054,9.019,14.404c-0.367,2.45-0.878,4.878-1.346,7.312
			c-2.815,14.607-4.912,29.315-6.816,44.07c-0.742,5.749,0.919,8.177,6.264,9.806c15.44,4.705,30.945,9.095,47.036,10.776
			c11.673,1.22,11.657,0.955,12.616-10.304c1.508-17.709,3.027-35.418,4.648-53.118c0.886-9.674,1.745-10.294,11.624-8.329
			c13.388,2.663,26.862,4.645,40.466,5.774c2.464,0.205,4.92,0.638,7.35,1.117c9.954,1.961,10.796,3.069,9.111,13.343
			c-0.801,4.884-2.031,9.706-3.242,14.512C678.976,782.688,674.778,799.024,670.454,815.977z M126.378,814.061
			c0.685-5.614,1.866-11.219,1.977-16.845c0.988-50.09,17.701-95.907,40.946-139.043c27.898-51.77,65.451-96.242,111.38-133.367
			c9.643-7.794,18.944-16.017,28.3-24.16c29.162-25.383,60.863-46.828,95.994-63.204c21.387-9.969,43.159-18.832,65.607-26.087
			c3.401-1.099,7.755-1.269,9.298-5.358c2.993-7.928,7.031-15.563,8.171-24.756c-10.446-1.567-19.523,1.276-28.445,4.368
			c-11.318,3.923-22.499,8.247-33.691,12.524c-28.839,11.02-58.527,17.223-89.547,17.196c-26.898-0.024-53.672,2.24-80.289,6.297
			c-37.172,5.666-64.06,25.312-79.988,59.325c-10.52,22.465-12.513,47.47-21.758,71.58c44.824-17.262,45.315-17.362,55.441-11.7
			c-1.764,2.106-4.332,2.026-6.715,2.576c-12.496,2.886-24.78,6.416-36.253,12.327c-28.84,14.858-50.36,36.556-64.98,65.829
			c-17.046,34.13-23.051,69.643-16.79,107.077C90.409,760.767,109.186,786.798,126.378,814.061z M627.511,241.893
			c-3.432-1.614-5.842-0.665-8.204-0.099c-17.255,4.133-34.439,8.58-51.763,12.392c-7.439,1.637-12.309,5.232-15.945,12.036
			c-14.205,26.582-28.63,53.001-40.317,80.874c-10.061,23.994-19.323,48.285-28.926,72.449c-2.059,5.182-2.282,8.782,4.479,9.565
			c1.625,0.188,3.202,0.785,4.805,1.176c20.244,4.936,24.032,20.939,21.087,34.937c-5.771,27.425-18.714,49.409-47.762,57.844
			c-1.189,0.345-2.351,0.79-3.548,1.105c-4.445,1.17-6.538,3.961-7.744,8.524c-1.914,7.244-2.438,14.643-3.637,21.955
			c-8.633,52.653-13.181,105.703-15.064,158.997c-0.151,4.281-1.1,8.824,1.307,13.876c19.299-7.002,37.843-13.757,56.412-20.442
			c3.619-1.303,4.88-3.696,5.018-7.5c1.038-28.587,8.565-56.243,12.439-84.441c4.948-36.018,15.052-71.058,22.732-106.562
			c19.818-91.609,48.226-180.185,93.616-262.699C627.055,244.86,627.102,243.558,627.511,241.893z M158.016,706.855
			c10.808-8.899,21.608-17.808,32.426-26.695c21.407-17.587,44.874-24.06,71.572-13.31c1.899,0.765,4.088,0.811,5.985,1.579
			c19.895,8.06,36.142,0.813,51.381-11.753c4.313-3.557,4.936-6.214,1.926-11.289c-6.099-10.286-11.505-21.025-16.59-31.862
			c-7.367-15.699-5.609-30.514,5.727-43.93c5.337-6.316,10.2-13.118,16.105-18.847c9.161-8.888,16.682-17.859,12.201-31.896
			c-0.693-2.169,0.158-4.931,0.627-7.354c2.789-14.432,16.491-27.711,30.241-26.243c9.739,1.04,15.289-2.69,21.193-8.72
			c4.617-4.716,9.737-8.954,14.768-13.247c15.173-12.947,31.229-24.524,50.296-31.17c4.277-1.491,8.752-2.403,13.109-3.673
			c3.899-1.136,5.494-4.392,4.274-7.66c-1.076-2.883-4.333-1.233-6.541-0.481c-34.137,11.625-66.94,26.29-97.874,44.803
			c-29.949,17.924-55.007,42.242-82.01,64.042c-38.059,30.724-69.227,67.383-96.409,107.672
			C176.07,658.094,164.251,680.707,158.016,706.855z M347.834,823.052c-40.255,21.872-71.354,49.236-85.861,92.222
			c-2.152,6.376-2.487,12.982-2.172,19.611c0.775,16.294,9.703,26.901,25.533,30.773c12.056,2.948,23.861,1.37,35.478-2.048
			c32.838-9.662,58.905-29.313,80.55-55.299c2.002-2.403,5.004-4.53,4.381-8.397C361.624,890.6,344.909,858.224,347.834,823.052z
			 M800.111,858.69c-2.956-0.441-4.526,1.764-6.117,3.51c-11.494,12.616-17.554,27.869-20.046,44.426
			c-4.554,30.26,0.087,60.026,6.077,89.625c1.24,6.125,4.349,11.602,7.604,16.844c12.952,20.859,35.214,22.675,51.318,4.326
			c0.816-0.929,1.552-1.928,2.333-2.887c20.078-24.637,30.844-53.35,36.281-84.235c1.239-7.038,4.81-14.029,2.529-21.603
			C833.341,917.991,803.54,892.473,800.111,858.69z M500.162,734.106c-18.514,0.06-31.962,5.414-43.219,16.251
			c-21.13,20.342-42.289,40.653-63.427,60.987c-1.488,1.431-2.95,2.897-4.331,4.43c-9.05,10.048-10.218,21.342-3.44,32.923
			c10.864,18.562,32.276,25.223,51.253,15.117c29.219-15.56,54.195-36.382,73.332-63.524c7.574-10.741,14.356-22.31,16.994-35.515
			c3.113-15.583-4.612-26.823-20.227-29.969C503.881,734.158,500.538,734.141,500.162,734.106z M893.917,724.807
			c-14.179,11.866-29.724,20.944-46.008,29.122c-14.778,7.422-17.053,18.26-8.05,32.252c4.949,7.693,6.941,15.599,6.112,24.577
			c-0.963,10.439-4.405,20.083-8.726,29.479c-4.619,10.043-1.258,18.917,5.163,26.29c6.509,7.474,15.37,11.045,25.636,8.821
			c11.414-2.472,20.188-8.312,26.128-18.854c10.62-18.845,18.561-38.708,22.916-59.799
			C922.834,768.876,916.506,744.492,893.917,724.807z M506.19,458.682c0.162-11.69-3.922-17.152-15.069-21.094
			c-11.073-3.916-21.787-3.01-32.58,1.105c-29.709,11.328-52.456,32.337-74.167,54.353c-10.524,10.672-10.549,24.764-5.227,38.291
			c7.681,19.523,27.374,22.749,40.728,6.5c7.743-9.422,17.224-14.961,28.819-17.787c6.381-1.556,12.714-3.49,18.857-5.811
			C489.639,505.894,505.86,482.394,506.19,458.682z M1014.969,412.009c16.208,15.352,26.84,33.057,32.637,53.761
			c1.743,6.226-1.489,14.732,3.923,18.429c5.649,3.859,13.608-0.054,20.57,0.018c2.053,0.021,4.123-0.181,6.162-0.45
			c17.068-2.254,26.958-12.502,29.582-30.873c-7.402-0.202-14.793-1.165-21.19,4.067c-1.272,1.04-3.277,1.104-4.422-0.448
			c-1.031-1.399-0.98-3.169,0.344-4.48c4.235-4.194,6.52-9.392,8.216-14.985c0.289-0.953,1.608-2.099,2.578-2.232
			c1.845-0.253,3.192,1.112,3.096,2.927c-0.54,10.162,6.461,7.35,11.69,6.569c14.416-2.153,22.69-20.704,13.193-30.965
			c-14.321-15.475-30.427-29.016-50.176-37.415c-8.26-3.513-15.858-3.141-22.888,3.298
			C1037.048,389.518,1025.333,399.299,1014.969,412.009z M396.663,625.073c-8.377,5.416-6.947,14.64-9.206,22.53
			c-0.566,1.978-0.843,4.215,1.474,5.381c2.244,1.128,3.931-0.368,5.438-1.768c1.202-1.116,2.325-2.354,3.3-3.672
			c11.136-15.056,15.053-31.739,11.878-50.278c-0.918-5.36-2.669-7.791-8.551-7.921c-16.865-0.375-29.639-8.875-40.013-21.599
			c-4.706-5.771-8.815-11.926-12.691-18.282c-3.783-6.202-4.819-6.429-9.872-0.884c-7.778,8.535-15.047,17.533-22.566,26.305
			c-8.98,10.477-10.65,22.229-5.163,34.64c4.664,10.549,10.193,20.715,15.314,31.062c6.183,12.493,17.938,17.695,29.805,22.665
			c4.067,1.703,8.635,1.156,11.91-1.261c7.61-5.617,14.483-12.088,14.133-24.075c-5.665,0.957-10.984,3.644-15.744-0.108
			c-1.329-1.047-2.231-2.378-1.908-4.219c0.344-1.954,1.815-3.159,3.435-2.515c6.959,2.769,11.755-1.387,17.001-4.66
			C387.963,624.336,391.337,621.049,396.663,625.073z M900.444,500.789c14.31,12.147,25.273,23.907,32.927,38.316
			c3.049,5.74,6.66,3.122,10.258,1.341c20.769-10.286,40.6-22.044,59.356-35.776c11.262-8.246,16.086-18.128,13.858-31.865
			c-1.333-8.217-3.008-16.235-6.964-23.639c-2.768-5.181-6.453-9.551-11.114-13.146c-3.254-2.511-6.706-3.435-10.314-1.175
			c-15.045,9.423-31.663,17.171-43.942,29.88C931.56,478.128,918.876,491.363,900.444,500.789z M373.379,493.463
			c-8.355-1.268-10.491-0.858-15.912,3.027c-11.075,7.937-15.225,22.208-9.391,36.582c5.608,13.817,13.528,26.532,24.543,36.722
			c9.66,8.936,21.11,14.548,34.88,12.219c16.725-2.828,24.28-18.808,16.405-34.209c-2.308-0.096-3.534,1.811-5.257,2.805
			c-18.683,10.777-38.778,3.862-46.335-16.314c-3.834-10.234-4.42-20.84-1.297-31.541
			C371.904,499.704,374.339,496.984,373.379,493.463z M445.382,867.995c-20.606,7.824-29.261,8.416-43.381,3.45
			c-28.377-9.982-35.998-41.989-15.237-63.439c3.172-3.277,7.883-5.617,8.835-11.052c-23.621-0.988-40.209,14.168-41.079,36.936
			c-1.104,28.919,23.754,56.71,52.672,58.886C424.51,894.078,438.418,885.394,445.382,867.995z M830.868,832.432
			c-19.675,5.286-28.325,25.909-18.33,44.793c7.873,14.874,20.942,23.148,37.252,25.901c12.491,2.109,24.755,0.947,35.695-6.399
			c11.623-7.804,16.099-19.524,12.027-31.192c-20.047,18.19-35.394,21.984-51.812,12.807
			C830.607,869.905,826.263,856.458,830.868,832.432z M719.581,172.281c-18.895,2.615-33.329,9.888-48.542,14.652
			c-21.768,6.816-24.958,26.756-35.062,43.288c7.47,1.114,12.588-1.01,17.878-1.405c5.755-0.429,11.512-1.608,17.241-1.452
			c15.674,0.428,26.59-4.788,29.832-21.663c0.816-4.247,4.042-8.055,6.278-11.998C710.827,187.316,714.545,180.984,719.581,172.281z
			 M978.332,432.446c10.02-6.209,18.969-8.47,27.429,0.592c4.281,4.586,8.605,9.134,10.836,14.939
			c7.416,19.293,12.699,38.665-2.693,57.285c1.632,0.52,2.76,1.233,3.842,1.171c14.812-0.85,24.47-11.602,23.802-27.601
			c-0.888-21.263-11.432-38.45-24.651-54.227c-1.809-2.159-4.341-3.828-6.784-5.321C997.632,411.659,985.045,416.38,978.332,432.446
			z M826.736,187.919c-12.924,5.042-23.694,10.548-35.126,13.368c-13.943,3.439-17.016,13.094-19.264,25.789
			c14.809,1.621,28.738,2.98,42.355,6.219c2.825,0.672,4.911-0.866,5.381-3.707C822.286,216.281,824.35,202.95,826.736,187.919z
			 M828.977,761.838c-3.957-1.718-7.501,0.022-10.925,0.751c-10.592,2.256-21.274,2.67-32.009,2.186
			c-19.202-0.866-19.213-0.944-23.973,17.592c-0.282,1.099-0.036,2.333-0.036,4.392c17.738,3.253,35.167,2.256,52.533-2.027
			c3.969-0.979,8.563-0.751,11.515-3.862c2.54-2.678-0.756-6.277,0.173-9.465C827.166,768.278,828.04,765.139,828.977,761.838z
			 M444.645,529.033c-1.053,0.331-2.645,0.674-4.105,1.316c-10.448,4.596-10.696,5.202-7.186,16.433
			c4.577,14.648,0.159,28.292-12.809,38.143c-2.488,1.89-4.625,3.312-4.108,6.747c1.294,8.599,2.055,17.218,1.024,25.915
			c-0.205,1.726,0.292,3.151,2.154,3.905c6.543,2.649,14.153-1.416,15.009-8.495c3.272-27.047,7.14-53.999,12.104-80.79
			C446.975,530.873,446.557,529.845,444.645,529.033z M625.483,737.333c-0.918,8.741-1.74,16.859-2.636,24.969
			c-0.428,3.873,0.85,6.292,4.983,6.969c5.273,0.864,10.506,1.971,15.761,2.947c2.476,0.46,5.076,0.709,7.051-1.115
			c8.548-7.896,18.168-14.785,25.519-25.563C658.631,743.04,642.346,741.521,625.483,737.333z M541.834,725.292
			c-0.39-0.759-0.597-1.902-1.117-2.068c-11.349-3.628-22.742-7.121-34.106-10.702c-3.844-1.211-7.164,0.179-10.701,1.473
			c-15.064,5.507-30.25,10.681-45.297,16.232c-3.735,1.378-8.215,1.586-10.997,5.75c8.491,4.43,16.608,6.884,24.932-0.394
			c2.096-1.833,4.985-2.933,7.681-3.878c16.804-5.891,33.624-8.817,49.631,2.094c4.11,2.801,7.227,2.925,10.76-0.498
			C535.545,730.467,539.536,728.827,541.834,725.292z M677.2,758.089c-3.574,2.675-4.813,3.685-6.132,4.577
			c-15.575,10.534-24.243,24.659-24.713,43.966c-0.194,7.976-2.509,15.912-2.271,24.593c12.319-6.656,18.34-11.214,19.799-16.85
			C668.515,796.486,673.812,778.733,677.2,758.089z M736.885,828.088c-5.204-0.444-8.399-0.808-11.605-0.974
			c-14.853-0.773-29.87-0.4-44.516-2.555c-12.985-1.911-21.033,3.493-28.301,12.541c1.609,2.374,3.848,1.725,5.715,2.076
			c15.94,2.996,32.198,1.344,48.198,3.173C718.686,843.756,728.017,839.364,736.885,828.088z M609.078,811.991
			c-17.672-1.888-33.955-5.54-49.933-10.529c-15.618-4.877-15.639-4.887-25.917,7.766c-0.68,0.837-0.726,2.19-1.191,3.709
			c19.395,4.738,38.482,9.057,58.189,10.737C599.687,824.481,604.548,820.365,609.078,811.991z M547.582,733.06
			c-6.094,1.294-9.175,4.887-13.031,7.127c-1.911,1.11-2.835,2.836-2.07,5.178c4.588,14.028,0.036,26.693-5.797,39.203
			c-3.203,6.87-3.512,13.856-0.849,21.415c12.998-11.266,14.394-12.416,14.64-18.306C541.23,769.585,544.679,751.847,547.582,733.06
			z M912.864,707.042c-5.223,2.588-7.359,6.531-10.416,9.457c-1.231,1.179-1.965,2.571-0.506,4.112
			c1.477,1.561,2.929,1.008,3.926-0.456C908.437,716.384,911.879,713.007,912.864,707.042z"/>
		<path fill="#340026" d="M818.009,457.255c-7.15-3.567-16.181-6.198-11.21-18.982c-32.896,3.287-63.619-1.227-93.59-12.823
			c-3.132,9.611-5.786,18.692-9.07,27.539c-2.732,7.36-6.073,14.543-12.263,19.832c-8.401,7.177-17.162,5.787-22.713-3.8
			c-2.256-3.896-4.173-7.95-4.785-12.636c-2.013-15.403-1.462-16.568,13.01-23.058c1.104-0.495,2.051-1.339,3.086-2.032
			c-0.484-3.714-3.702-5.326-5.651-7.808c-5.969-7.602-6.285-7.727-0.511-15.546c3.131-4.24,2.741-6.993-1.133-10.348
			c-12.735-11.028-20.901-25.467-29.056-39.874c-1.427-2.521-1.367-2.555-1.479-10.378c11.015,10.956,15.855,25.162,26.987,36.109
			c4.269-8.261,5.572-16.332,7.26-24.121c3.858-17.797,9.128-35.183,14.519-52.534c3.512-11.302,4.557-12.197,16.801-12.228
			c39.706-0.101,77.958,7.918,115.039,21.739c8.147,3.037,15.444,7.833,22.234,13.354c21.095,17.151,28.079,38.977,21.797,65.24
			c-1.148,4.801-2.469,9.56-3.654,14.352c-0.076,0.306,0.328,0.731,0.782,1.656c6.418-1.258,11.484-5.547,17.193-8.428
			c1.834-0.926,4.1-1.985,5.615,0.06c2.001,2.702-0.092,4.775-2.193,5.984c-7.87,4.53-15.54,9.711-23.945,12.921
			c-8.02,3.063-10.184,7.855-10.401,15.837c-0.374,13.778-4.348,26.854-10.631,39.168c-2.886,5.657-6.987,10.152-12.445,13.481
			c-6.003,3.662-11.738,3.378-17.309-0.759c-5.455-4.052-8.522-12.875-6.866-18.787c0.755-2.697,2.668-4.019,4.844-5.259
			C811.782,463.123,816.091,462.141,818.009,457.255z M800.003,430.701c9.671-0.051,18.691-2.7,27.735-5.22
			c26.078-7.268,25.777-6.247,32.944-35.277c5.335-21.612-1.92-39.813-18.902-54.112c-7.008-5.901-14.779-10.591-23.368-13.764
			c-35.543-13.13-72.324-19.772-110.156-21.087c-5.94-0.207-9.046,1.551-10.46,7.573c-2.167,9.227-5.297,18.224-7.689,27.405
			c-1.864,7.153-1.329,8.024,5.979,8.61c14.827,1.19,29.615,2.754,44.228,5.435c20.376,3.739,40.495,8.456,57.183,21.928
			c15.869,12.812,18.793,31.153,7.944,48.547C803.545,423.783,800.078,425.988,800.003,430.701z M698.987,352.555
			c-12.693-0.679-12.639-0.665-15.194,9.322c-1.939,7.578-3.911,15.153-6.112,22.658c-1.318,4.496-0.284,7.679,3.328,10.838
			c26.848,23.474,58.375,34.968,93.656,36.464c11.496,0.487,23.387-9.265,27.734-21.187c4.259-11.681,1.335-22.973-8.153-31.265
			c-9.52-8.32-20.852-13.105-32.816-16.582C740.348,356.677,718.621,354.515,698.987,352.555z M672.858,453.682
			c0.061,1.229-0.002,2.48,0.206,3.684c0.908,5.251,1.188,11.449,7.574,12.822c5.68,1.22,8.756-3.675,11.475-7.74
			c4.604-6.885,7.282-14.678,9.655-22.552c5.255-17.433,5.227-17.435-9.404-27.247c-1.703-1.142-3.338-2.386-5.013-3.571
			c-4.719-3.34-6.589-0.325-7.858,3.636c-1.957,6.109,3.031,8.752,6.313,12.178c7.505,7.836,7.553,9.915-2.518,13.271
			C675.036,440.91,672.32,445.8,672.858,453.682z M844.158,436.632c0.312-7.327-0.243-7.808-7.691-5.955
			c-4.399,1.094-8.682,2.737-13.123,3.558c-4.766,0.882-6.793,3.446-7.894,8.08c-1.219,5.13,2.13,6.244,5.225,8.333
			c6.912,4.666,7.2,7.63,1.545,13.504c-1.695,1.761-3.826,3.11-5.796,4.598c-5.307,4.009-6.175,9.476-2.239,14.295
			c3.169,3.881,7.344,3.53,12.931-1.005c3.287-2.667,5.429-6.145,7.358-9.827C840.316,461.058,842.968,449.046,844.158,436.632z"/>
	</g>
</g>
</svg>
